<svg xmlns="http://www.w3.org/2000/svg" xmlns:xlink="http://www.w3.org/1999/xlink" width="373.8" height="412.4" viewBox="0 0 373.8 412.4">
    <path fill="#FDF2DB" d="M36.5 6h280.9c20.2 0 36.5 16.4 36.5 36.5v333.4c0 20.2-16.4 36.5-36.5 36.5H36.5C16.4 412.4 0 396 0 375.9V42.5C0 22.3 16.4 6 36.5 6z"/>
    <defs>
        <path id="a" d="M36.5 6h280.9c20.2 0 36.5 16.4 36.5 36.5v333.4c0 20.2-16.4 36.5-36.5 36.5H36.5C16.4 412.4 0 396 0 375.9V42.5C0 22.3 16.4 6 36.5 6z"/>
    </defs>
    <clipPath id="b">
        <use xlink:href="#a" overflow="visible"/>
    </clipPath>
    <g clip-path="url(#b)">
        <path fill="none" stroke="#FFF" stroke-width="2" stroke-miterlimit="10" d="M-73.8 53.8c40.2 44 74.7 92.8 102.7 145.4C68.7 274.2 84.1 336 87.3 349c14.9 61.2 18.4 73.5 14.3 85.5-19.2 55.5-116 90.9-159.7 57.8-42.6-32.3-21.8-120.2-19.3-130.5C-29.5 168.4 317 18.7 432.3 118c81.2 69.9 64.5 277.6-31.4 343.6C239.2 573-133.7 271.7-107.3 205c29.9-75.7 610 59 605.9 116.9-2.7 39.2-273.9 53.3-546.1 58.5"/>
    </g>
    <defs>
        <path id="c" d="M352.1 60.1v315.7c0 20.2-16.3 36.5-36.5 36.5l-210.7-2.9"/>
    </defs>
    <clipPath id="d">
        <use xlink:href="#c" overflow="visible"/>
    </clipPath>
    <g clip-path="url(#d)">
        <path fill="#3987E0" d="M311.4 527.2h-30.6l-.3-.3c-23.7-20.2-37.9-53.8-37.9-89.6-.1-13.6 3.3-27 9.7-38.9l18.1-32.7c5.3-9.7 8-20.7 7.9-31.7v-6.5H309v7.6c-.1 10.9 2.6 21.6 7.8 31.2l18 32.1c6.6 12 10 25.5 9.9 39.2v4.3c-.1 33.2-12.3 64.7-33.3 85.3z"/>
        <defs>
            <path id="e" d="M311.4 527.2h-30.6l-.3-.3c-23.7-20.2-37.9-53.8-37.9-89.6-.1-13.6 3.3-27 9.7-38.9l18.1-32.7c5.3-9.7 8-20.7 7.9-31.7v-6.5H309v7.6c-.1 10.9 2.6 21.6 7.8 31.2l18 32.1c6.6 12 10 25.5 9.9 39.2v4.3c0 33.2-12.3 64.7-33.3 85.3z"/>
        </defs>
        <clipPath id="f">
            <use xlink:href="#e" overflow="visible"/>
        </clipPath>
        <g clip-path="url(#f)">
            <path opacity=".67" d="M250.4 324.4c6.9-5.3 4-10 4.2-10.1.5-.3 2.2 1.8 2.6 2.1 6 7 10.5 42.5 10.5 42.5.5 3.6 3.9 29.1 21.4 44.5 7.2 6.3 10.2 5.2 44.9 21.8 19.8 9.4 20.5 10.6 20.5 11.6-.3 11-82.5 39.3-115.9 4-32.6-34.3-16.4-94.7 11.8-116.4z"/>
        </g>
    </g>
    <path d="M56.8 6.1h230v316.5h-230V6.1z"/>
    <path d="M56.8 6.1h230v316.5h-230V6.1z"/>
    <path fill="#FFF" stroke="#292538" stroke-miterlimit="10" d="M56.8 0h230v316.5h-230V0z"/>
    <path fill="none" stroke="#292538" stroke-miterlimit="10" d="M63.2 307.5l-6.4 9m223.6-9l6.4 9M280.4 9l6.4-9m-230 0l6.4 9"/>
    <path fill="#F9F9F9" stroke="#292538" stroke-miterlimit="10" d="M63.2 9h217.3v298.5H63.2V9z"/>
    <defs>
        <path id="g" d="M79.2 24.4h189.1v263.5H79.2"/>
    </defs>
    <clipPath id="h">
        <use xlink:href="#g" overflow="visible"/>
    </clipPath>
    <g clip-path="url(#h)">
        <path fill="#D7E3F4" d="M-11.9-16.3h346.5V362H-11.9V-16.3z"/>
        <path fill="#F9EFEA" d="M203.3 289.4L83 239.3s-6.7 6-8.6 20.5c-1.9 14.5.3 26.8 6.7 30s32.4 5.9 40.6 9.5 20.3 4.6 34.7 7.1 46.9-17 46.9-17z"/>
        <path fill="#F9E5D2" d="M200.6 177.3c.2 1.1 4.2 21.5 19.2 26.9 3.6 1.2 7.5 1.7 11.3 1.5 12.7-1 22-8.1 26.5-19.8 1.8-4.9 3.3-9.8 4.5-14.9 0 0 .1-.2 0-.2"/>
        <path fill="#F9EFEA" d="M196.8 62.4c-12.1 4.7-20 16.3-20 29.3 0 6.7-.1 13.2-.2 16.2-.3 7.5 2.6 29.3 7.1 36.2s7.7 12.7 11.7 15.7 9.4 5.5 12.1 5.5 6.1-3.5 6.1-.5 1.6 8.5-.1 11.5-13.7-.5-18 2.2-.3 36.6 28.9 37.1 45-25.4 41.5-35.2-6.9-10.2-8.5-9.7-5.4 1.3-5.4 1.3-2-12.5-1.8-15.7-1.3-23.6 1.2-25.7 7.7-4.4 9.9-7.5 6.1-8.9 1.1-13-9.1-3-10.6-3.1c-.5 0-1-4.4-1.4-9.9-.8-13-9.2-24.4-21.5-29-11-4.1-22.5-8.4-24-8.5-1 .1-4.2 1.2-8.1 2.8z"/>
        <path opacity=".73" fill="#232228" d="M184.7 42.1s-10.8 6.6-10.9 13.8 1.8 13.6 2.9 15c1 1.4 2.8 3.1 1.5 3.2l-4.4.4s3.9 5.4 7 6.2 6.1-1.8 8.1-1.2 3.5-3.3 7.3-2c3.7 1.3 7.1-1.7 12-2 4.9-.3 21.6 3.9 26 7.5 4.4 3.6 7.2 8.5 7 13s-1.2 9.8-.8 11.2-.1 9 .1 12.3.1 5.4 1.3 5.4 1 1.4 3.1-1.5-.2-9.6 3.4-11.7 12.6-8.8 13.7-13.4c1.1-4.6 3.3-21.2 1.5-26-1.8-4.8-2.6-9.4-1.4-12.9s3.2-7.7.8-7.6-4.2 4.2-4.2 4.2l-2.3-6.2-1.8 3.8s-3.8-3.5-6.5-4.3-11.3-1.6-13.3-1.8-7.4-1.4-12.6.4-8.9 3.4-12.2 3.9-5.1-5-6.9-4.5.6-5.2-3.4-5.1-7.8.8-9.6 2.4-5.4-2.5-5.4-2.5z"/>
        <path fill="#E83041" d="M153.4 201.4l1-.9 10.6-9 10.4-6c3.7-2 7.5-3.6 11.5-4.8 6.4-1.9 13.7-3.4 13.7-3.4 5.1-.7 10-1.2 10.1-.7 0 .2-.7.4-1.2.9-2.2 2.5-.6 8.9 6.5 12.3 1.2.6 6.4 4.4 8.6 4.4 11.8.2 11.1 2.4 17.5-4.7 7-7.8 8.5-15.2 8.8-18.8s12.2-.6 12.2-.6c5 1.4 34.5 10.5 45.1 37.3 6.5 16.3 3.5 32.7 1.5 43.7-1.2 6.5-3.1 16.5-9.6 27.7-3 5.1-10.2 17.5-24.1 25-8.6 4.6-15.1 4.9-32.7 6.5-10.9 1-27.4 2.6-48.2 5.1 0 0-26.1 3-50.2-1.5-14.7-2.7-17-6.4-17.6-8.6-.1-.5-.1-1 0-1.4.9-4.2 3.6-17.1 9-18.2s8.1-2.6 10.8-1.4 21.8 0 26.5-7.9c7.8-13.2.9-37.5.4-38.9"/>
        <path fill="#FFF" d="M158.1 289.7c3.1.6 6.9 1.3 11.2 2.1 10.7 1.9 12 2 13.1 1.1.7-.6 1.8-2-1.4-20.4-1.4-8-2-10.3-1.4-14.3.6-2.6.9-5.2 1-7.8-.1-2.7-.4-5.3-.9-7.9-1.2-6.5-1.4-9.9-2.4-11.6-5.3-9.5-8-14.3-11.3-17.9-3.5-4.2-7.8-7.7-12.7-10.3-3.4-1.7-7.1-2.9-10.9-3.5-5.2-.9-10.5-1-15.7-.1-7.8 1.3-7.7 3.5-16.4 6.2-12.5 3.8-15.4.2-23 4.5-5.3 3-4.4 5.2-11.8 11.2-7.9 6.4-10.9 5.7-16.6 10-12.1 8.9-15.1 24.3-16.7 32.7-2.3 12-3.7 19 .4 25 4.2 6.1 10.7 5.8 37.3 14 5.6 1.7 10.1 3.2 13.3 4.3 0 0-2.2-14-1.3-15.8s2.7-7.8 4.7-6.4 5.2-4.4 8.8-6 6.7-.9 10.9-1.4 7.3-1.8 9.9-1.6-1.1-10-1.1-10 6.6 1.7 7.1 2.5 3.5 4.8 3.8 6.3-1 3 .1 3.2 8.6 5.6 11 6.6 11.1 5.3 11 5.3z"/>
        <path opacity=".45" fill="#BFB2A9" stroke="#BFB2A9" stroke-width="2" stroke-linecap="round" stroke-linejoin="round" d="M138.2 224.7s6.6 6.1 8.5 7.1 5.8 2.4 5.8 2.4c-3.4.4-6.8 1.4-9.9 2.9 0 0-1.9.9-9.3 5.5h0s3.7-6.9 3.9-8.9 1-9 1-9h0z"/>
        <path fill="#EAC194" stroke="#EAC194" stroke-width="2" stroke-linecap="round" stroke-linejoin="round" d="M232.4 156.4c-3.8 8.5-10.3 15.6-18.5 20.1l-.6-.2c.6-2 .5-4.1.3-6.6 0-.7-.6-4.3-.2-4.8v-.1c9.3-1.7 18.1-7.7 19-8.4h0z"/>
        <path fill="none" stroke="#E83041" stroke-width="2" stroke-linecap="round" stroke-linejoin="round" d="M153.4 201.4c-.3-1.3 2.9-3.4 3.6-4 11.3-9.5 27.8-17.8 43.6-20.1 4.1-.6 8.3-.8 12.5-.6"/>
        <path fill="none" stroke="#EAC194" stroke-width="2" stroke-linecap="round" stroke-linejoin="round" d="M247 113.4c.5-2 3.2-3.8 4.7-5 12.5-9.5 17.4 14.7.5 20.7"/>
        <path fill="none" stroke="#DB7E56" stroke-width="2" stroke-linecap="round" stroke-linejoin="round" d="M250.3 120.1c.3-1.5 2.6-3.5 3.9-4.1 5.4-2.8-.1 9.2-1.7 7"/>
        <path fill="none" stroke="#EAC194" stroke-width="2" stroke-linecap="round" stroke-linejoin="round" d="M251.6 129.9c-.2 0-.3.6-.4.8-.7 2.8-.6 5.8-.7 8.6v1.1c-.3 10.9-.4 21.8-.3 32.8"/>
        <path fill="none" stroke="#DB7E56" stroke-width="2" stroke-linecap="round" stroke-linejoin="round" d="M213.5 164.9c-.4.5.1 4.1.2 4.8.1 2.5.3 4.6-.3 6.6-.4 1.1-.9 2.1-1.7 3"/>
        <path fill="none" stroke="#292538" stroke-width="2" stroke-linecap="round" stroke-linejoin="round" d="M207.9 177.1c.9 5.4 9.3 15.5 14.5 17 12.3 3.6 21.9-3.4 26.1-14.6.8-2 1.9-5 1.9-7.1"/>
        <path fill="none" stroke="#EAC194" stroke-width="2" stroke-linecap="round" stroke-linejoin="round" d="M203.2 148.9c1.1-.7 3.7-.8 4.8-1.1 2.9-1 5.7-2.5 8.3-4.3 1.2-.9 2.4-1.8 3.5-2.8l.8-.7c.7-.6 1.3-1.3 2-2 0 0 .1-.1.1 0"/>
        <path fill="none" stroke="#292538" stroke-width="2" stroke-linecap="round" stroke-linejoin="round" d="M203.8 103.3c.6-4.7 11.6-6.4 15.3-4m-32.4 8.6c-2.5-1.4-5.7-5-8.9-2.4m28.4-31c-2.3-1.3-3.7-4.7-3.6-7.2"/>
        <path fill="none" stroke="#DB7E56" stroke-width="2" stroke-linecap="round" stroke-linejoin="round" d="M197.4 113.8c-1.6 5.6-3.2 33.5 7.9 17.7"/>
        <path fill="none" stroke="#292538" stroke-width="2" stroke-linecap="round" stroke-linejoin="round" d="M257.3 106c3.3-2.8 4.9-7.5 7.3-11 1.3-1.8-1.2.9-1.8 1.2m-1.3-2.1c.6-.6 1.2-1.2 1.8-1.9 1.2-1.9 2.2-3.8 3.2-5.8m-2.7-2c0-1.5 1.8-5 1.9-7.6"/>
        <path fill="none" stroke="#EAC194" stroke-width="2" stroke-linecap="round" stroke-linejoin="round" d="M190.9 155c-14.2-19.2-16.7-43.6-13-65.7m13 65.7c1.2 1.8 2.7 3.5 4.4 4.8 2.3 2.2 5.1 3.9 8.2 4.9 3.3.9 6.7.9 10 .2 9.2-1.8 18-7.8 18.9-8.5h0"/>
        <path fill="none" stroke="#292538" stroke-width="2" stroke-linecap="round" stroke-linejoin="round" d="M182.4 80.8c-2.4.1-4.5-1.5-6.1-3.1-.2-.2-2.7-3-2.5-3.2.9-.9 3.4.1 4.4-.4m17.1 5.3c-4-1.6-6.2-7.5-6.3-11.6 0-.2-.1-.8.2-.8 1.2-.2 6.6 5 8.6 5.6m64.4-3.2c-1.7-4.7 3.3-16.8.8-19.7-.5-.5-1.4.8-1.6 1.1-1.2 1.6-1.9 3.4-2 5.4 0 .1 0 .6-.1.7s-.3-1-.4-1c-.2-.9-2-8.9-2.9-6.4-.5 1.2.5 4.6 0 5.3-.3.5-.7-.9-1.1-1.3-.8-1-1.7-1.9-2.8-2.6-5.2-2.8-11.1-4-16.9-3.5m-57.4 24.8c-1.9-2.3-3.2-5.1-3.8-8.1-2.1-9.9 2.8-16.7 10.7-22m-1.5 7.5c0-5.6 10.1-9 14.4-7.3m-1.4 6.6c1.2-1.2 2.6-2 4.2-2.4m6.4 5.7c.2-.1.4-.3.6-.4m26.9-4.4c-9.1-2.9-15.8 2.8-24.1 4.3m-.5 21.5c3.5 2.4 7.7 3.6 11.7 4.8 19.5 5.9 21.5 8.8 19.1 29.1"/>
        <path fill="none" stroke="#EAC194" stroke-width="2" stroke-linecap="round" stroke-linejoin="round" d="M226.6 131c2.3-.1 3.1 2.6 2.7 4.3"/>
        <path fill="none" stroke="#E83041" stroke-width="2" stroke-linecap="round" stroke-linejoin="round" d="M263.1 170.1c11.3 4.8 24 10.4 33.2 18.6 27 24.1 15.2 85.2-9 107.4-22.5 20.7-55 10.1-84.2 18.6m48.7-75.4c-.9 4.8-2.1 9.6-3.5 14.3m-109.8 30c-8.1 4.8-16.7 13.2-13.9 23.6m13.9-23.6c5-2 29.8 14.8 35.8 17.5"/>
        <path fill="none" stroke="#E5DFDA" stroke-width="2" stroke-linecap="round" stroke-linejoin="round" d="M165.4 275.9c.3 1.3.4 2.7.2 4.1m-16.2 1.1c.6 1.4 1.5 2.6 2.6 3.6m6.4-2.4c.2.4.3.8.5 1.2m14.8-6.4c0 .8-.1 1.7-.2 2.5m-19.6-75.9c10.5 3.5 23.2 22.5 25.3 33.2"/>
        <path fill="none" stroke="#BFB2A9" stroke-width="2" stroke-linecap="round" stroke-linejoin="round" d="M134.1 215.6c1.4 5.1 4.3 9.7 8.2 13.1 9.3 8.1 20.9 6.3 22.7 6.1m-26.8-9.4c0 13.9-8.8 27.9-24.1 26.2"/>
        <path fill="none" stroke="#E5DFDA" stroke-width="2" stroke-linecap="round" stroke-linejoin="round" d="M125.1 199.3c3.5 0 6.7-3 8.9-5.4"/>
        <path fill="none" stroke="#DB7E56" stroke-width="2" stroke-linecap="round" stroke-linejoin="round" d="M88.2 290.1c-1.3 5.6 20 9.7 24.2 8.9m9.9-23.4c-.8-2.9-1.3-6-1.4-9v-.7c0-.1.1-.2.2-.2"/>
        <path fill="none" stroke="#BFB2A9" stroke-width="2" stroke-linecap="round" stroke-linejoin="round" d="M120.7 265.7l.3.1c1.6.9 4.3 3.8 5.8 3.3.7-.2.2-2.1.9-2.1l.1.2c1.1 2.9 5.8 6.8 4.4 10.5"/>
        <path fill="none" stroke="#DB7E56" stroke-width="2" stroke-linecap="round" stroke-linejoin="round" d="M107.1 269.1c-.5.2.5 1.7.6 1.9 1.8 2.8 6.8 6.3 10.3 5.8"/>
        <path fill="none" stroke="#E5DFDA" stroke-width="2" stroke-linecap="round" stroke-linejoin="round" d="M101.6 266.3c.2.7.4 1.4.6 2"/>
        <path fill="none" stroke="#DB7E56" stroke-width="2" stroke-linecap="round" stroke-linejoin="round" d="M97 278.6c-.9 2.2 10.3 6.5 12.1 7.1"/>
        <path fill="none" stroke="#E5DFDA" stroke-width="2" stroke-linecap="round" stroke-linejoin="round" d="M90.9 280c-.4 0 2.1 4 2.3 4.3m.5-9.8c-.1.8-.2 1.5-.3 2.3m-9.7-.2c-.1.5-.1.9 0 1.4m0 8c.1.1.1.3.3.4"/>
        <path fill="none" stroke="#DB7E56" stroke-width="2" stroke-linecap="round" stroke-linejoin="round" d="M112.4 299.3c4 0 7.7 2.8 11.1 4.6"/>
        <path fill="none" stroke="#E5DFDA" stroke-width="2" stroke-linecap="round" stroke-linejoin="round" d="M54.3 268.9c.1.2.7 1.1.9 1.4.5.9 1.1 1.8 1.6 2.6l3.3 5.7c3.7 6.8 8.2 16.4 4.1 24.1m-18.9-27.9c1.8 7 11 11.6 7.6 20.6"/>
        <path fill="none" stroke="#BFB2A9" stroke-width="2" stroke-linecap="round" stroke-linejoin="round" d="M39.3 284.5c.5 1.7.9 3.5 1.1 5.3m48.3 16.6c5.3 3.8 10.2 8.6 9.3 15.8"/>
        <path fill="none" stroke="#E5DFDA" stroke-width="2" stroke-linecap="round" stroke-linejoin="round" d="M69.4 278.7c.3.7.7 1.4 1.3 2m-25.6-28c11.4-26.2 19.6-26.2 42.9-37.5m11.1 10.5c-6.6 3.6 1.7 16.8 6.2 19.3m-6.6 5.2c.6.6 1.2 1.2 1.8 1.6m41.9-52.6c1.8.1 3.5.8 5 1.8m-35.7 3.8c-7.9 2.9-16 3.5-24.4 3.5-1.4 0-4.2-.5-5.5.4-1.4 1.1.7 3.9 1.5 4.6M75.5 302c1.2 1.1 2.4 2.1 3.8 2.9"/>
        <path fill="none" stroke="#BFB2A9" stroke-width="2" stroke-linecap="round" stroke-linejoin="round" d="M44.7 298.7c-.3-.1 1.3 2.4 1.4 2.6 1.2 2 2.4 3.9 3.5 6 3.6 6.6 6.8 16.5 2.6 23.6"/>
        <path fill="none" stroke="#DB7E56" stroke-width="2" stroke-linecap="round" stroke-linejoin="round" d="M226.8 174.9c0 1.2-.6 2.3-.5 3.5"/>
        <path fill="none" stroke="#9E8D82" stroke-width="2" stroke-linecap="round" stroke-linejoin="round" d="M155.2 252.1c.4 1.8 1.4 3.5 3 4.5 2.6 1.6 5.8 1.7 8.4.3"/>
        <path fill="none" stroke="#9E8D82" stroke-width="2" stroke-linecap="round" stroke-linejoin="round" d="M155.1 252.9c1.1 1.5 1.5 3.4 1.2 5.2-.8 2.8-3.1 4.9-6 5.5"/>
        <path fill="#292538" stroke="#292538" stroke-width="2" stroke-linecap="round" stroke-linejoin="round" d="M160.5 241.6c1.7 2.4-1.2 8-5.3 10.5-5 3.1-12.4 2.2-13.5-.6-1-2.7 3.4-7 7.2-9.1 3.8-2.1 9.9-3.3 11.6-.8z"/>
        <path fill="none" stroke="#292538" stroke-width="2" stroke-linecap="round" stroke-linejoin="round" d="M208.3 121.8c1.4-3.4 5.2-5 8.6-3.6 1 .4 1.8 1 2.5 1.8m-40.2 4.7c1.4-3.4 5.2-5 8.6-3.6 1 .4 1.8 1 2.5 1.8"/>
        <path fill="none" stroke="#DB7E56" stroke-width="2" stroke-linecap="round" stroke-linejoin="round" d="M203.3 148.9h0l.1.1.5.4c.1.1.3.2.4.3s.6.5 1 .7.5.4.8.6c.1.1.2.1.3.2 1.1.8 2.4 1.4 3.7 1.9.9.3 1.8.5 2.7.4h0c.2 0 .4-.1.6-.2.1 0 .3-.1.4-.2 1.2-.7 2.3-1.8 3-3 .9-1.5 1.6-3.1 2.1-4.7.3-.9.5-1.8.8-2.8.1-.4.3-1.6.3-1.6h0"/>
    </g>
    <path fill="none" stroke="#F9F9F9" stroke-width="1.5" stroke-miterlimit="10" d="M74.4 37.8h194.9M74.4 57.1h194.9M74.4 76.4h194.9M74.4 95.7h194.9M74.4 115h194.9M74.4 134.3h194.9M74.4 153.6h194.9M74.4 172.8h194.9M74.4 192.1h194.9M74.4 211.4h194.9M74.4 230.7h194.9M74.4 250h194.9M74.4 269.3h194.9m-1-250.9v273.7M249 18.4v273.7M229.7 18.4v273.7M210.4 18.4v273.7M191.1 18.4v273.7M171.8 18.4v273.7M152.5 18.4v273.7M133.3 18.4v273.7M114 18.4v273.7M94.7 18.4v273.7M75.4 18.4v273.7"/>
    <path fill="none" stroke="#292538" stroke-width="1.5" stroke-miterlimit="10" d="M77.3 239.5v-26.7l.8-4.5V24.4h188.3v264.3H77.3v-49.2h0z"/>
    <path d="M78.1 24.4v263.4h6.1V29.3h182.2v-4.8H78.1z"/>
    <path opacity=".67" d="M75.9 140.8c-6.6 0-13.1 1.7-18.9 4.9V214c5.1 2.5 12.8 4 18.9 4 21.3-.3 38.3-17.9 38-39.2-.4-20.8-17.2-37.6-38-38z"/>
    <circle fill="#FFF" stroke="#292538" stroke-miterlimit="10" cx="66.3" cy="168.5" r="38.6"/>
    <path opacity=".75" fill="#161333" d="M275.3 291.1c3.2-5.4 2.2-12.3-2.4-18.1-.7-.9-1.9-1.3-3-1.2-.8.1-1.4.6-1.7 1.3l-2 5.2c-1.5 4.4-1 9.3 1.5 13.3-1-1-2.1-1.9-3.1-2.9-2.6-2.4-5.2-4.8-7.8-7.6l2.2-4c2.6-5.1 2.2-11.2-1.1-15.8-.5-.7-1.3-1.1-2.2-1-.8.1-1.4.6-1.7 1.3l-1.7 4.7c-1.1 2.9-1.2 6.1-.3 9.1-2.7-3.6-5.1-7.5-7.1-11.6l3.5-2.2c4.8-3.1 7.5-8.6 7-14.3-.1-.9-.6-1.6-1.4-1.9-.7-.3-1.5-.2-2.1.3l-3.8 3.2c-3 2.6-4.9 6.2-5.3 10.2-.8-1.9-1.5-3.9-2.2-5.9l3.9-2.4c4.8-3.1 7.5-8.6 7-14.3-.1-.9-.6-1.6-1.4-1.9-.7-.3-1.5-.2-2.1.3l-3.8 3.2c-2.9 2.4-4.7 5.8-5.2 9.6-.8-2.8-1.4-5.8-1.9-8.8.1 0 .3-.1.4-.1l3.9-2.4c4.8-3.1 7.5-8.6 7-14.3-.1-.9-.6-1.6-1.4-1.9-.7-.3-1.5-.2-2.1.3l-3.8 3.2c-2.5 2.1-4.2 5-4.9 8.1-.3-2.7-.6-5.5-.7-8.4l2.3-5.5c1.4-3.4 1.4-7.3 0-10.7l-1.4-3.1c-.4-1-1.3-1.6-2.3-1.6-1 0-2 .6-2.4 1.5l-1.1 2.5c-2.3 5.1-1.5 11 2.2 15.2l1.7 2c.1 2.7.4 5.3.6 7.9-2-3.7-5.5-6.4-9.6-7.4l-4.9-1.2c-.7-.2-1.5.1-2 .7-.6.7-.7 1.6-.4 2.4 2.1 5.3 6.9 9 12.6 9.6l4.6.4h.3V237.8c0 .4.2.7.4.9.5 2.7 1 5.3 1.7 7.9-2.2-4.2-6-7.3-10.6-8.4l-5.3-1.3c-.8-.2-1.6.1-2.2.7-.6.7-.8 1.7-.4 2.5 2.2 5.8 7.5 9.8 13.6 10.5l6 .6v1.1c0 .5.3 1 .9 1.2.9 2.8 2 5.5 3.1 8v1.5l-.2-.2c-3.3-3.9-8.2-6.2-13.3-6.4l-5.9-.2c-1.3-.1-2.4 1-2.4 2.3 0 .5.1 1 .4 1.5 3.5 4.8 9.1 7.7 15 7.7.6 0 1.1 0 1.7-.1l7.3-.7c1.7 3.1 3.6 6.1 5.7 9-2.8-1.8-6-2.8-9.3-2.9l-5.9-.2c-.9 0-1.7.4-2.2 1.2-.4.8-.4 1.8.2 2.5 3.5 4.8 9 7.7 15 7.7.6 0 1.1 0 1.7-.1l7-.6c2.2 2.2 4.4 4.3 6.5 6.3l1.4 1.3c-2.6-1.5-5.6-2.4-8.6-2.5l-5.9-.2c-.9 0-1.7.4-2.1 1.2-.4.8-.4 1.8.2 2.5m-1.3-42.6h.2l.3.6-.5-.6z"/>
    <ellipse fill="#FDF2DB" cx="293.6" cy="327.5" rx="15.3" ry="9.8"/>
    <path opacity=".67" d="M308.9 327.5c0 5.4 1.3-6.7-15.3-6.7s-15.3 12.1-15.3 6.7 6.9-9.8 15.3-9.8 15.3 4.3 15.3 9.8z"/>
    <path fill="none" stroke="#F2F7F9" stroke-width="2" stroke-linecap="round" stroke-miterlimit="10" d="M298.6 370s3.5 1.6 12.1 0 9-10.1 9-10.1"/>
    <path fill="none" stroke="#292538" stroke-linecap="round" stroke-miterlimit="10" d="M299.8 331.6c-.5-9.2.1-22.8 7.1-36.4 8.1-15.8 19.2-20.5 29.5-31.9 9.3-10.4 19.8-28.2 21.5-60.5"/>
    <path fill="#9CC153" stroke="#292538" stroke-miterlimit="10" d="M346.1 249.2l2.9-3.1c3.4-3.7 8.1-5.8 13.1-5.8h5.9c1 0 1.9.8 1.9 1.8 0 .4-.1.8-.4 1.2h0c-3.9 5-10.2 7.6-16.5 6.8l-6.9-.9z"/>
    <path fill="#C9E092" stroke="#292538" stroke-miterlimit="10" d="M352 234.7l2-3.6c2.2-4.1 6.2-7 10.7-8l5.3-1.1c1-.1 2 .6 2.1 1.6 0 .4 0 .7-.2 1h0c-2.3 5.5-7.6 9.2-13.5 9.6l-6.4.5zm4.5-15.3c-.4 0-.7-.3-.8-.7 0-.1 0-.3.1-.4l1.2-2.1c2-3.8 5.7-6.5 9.9-7.4l4.9-1c.9-.1 1.8.6 1.9 1.5 0 .3 0 .6-.2.9h0c-2.2 5.1-7 8.5-12.5 8.9l-4.5.3z"/>
    <path fill="#9CC153" stroke="#292538" stroke-miterlimit="10" d="M354.6 221.6c.3.2.8.1 1-.2.1-.1.1-.2.1-.4l.1-2.4c.2-4.3-1.6-8.5-4.8-11.4l-3.7-3.3c-.8-.6-1.8-.4-2.4.3-.2.3-.3.6-.3.9h0c-.7 5.5 1.7 10.9 6.2 14l3.8 2.5z"/>
    <path fill="#C9E092" stroke="#292538" stroke-miterlimit="10" d="M350.8 236.9c.3.2.8.1 1-.2.1-.1.1-.2.1-.4l.1-2.5c.2-4.3-1.6-8.5-4.8-11.4l-3.7-3.3c-.8-.6-1.8-.4-2.4.3-.2.3-.3.6-.3.9h0c-.7 5.5 1.7 10.9 6.2 14l3.8 2.6z"/>
    <path fill="#73893D" stroke="#292538" stroke-miterlimit="10" d="M344.8 250.5c.3.2.8.1 1-.2.1-.1.1-.2.1-.4l.1-2.5c.2-4.3-1.6-8.5-4.8-11.4l-3.7-3.3c-.7-.6-1.8-.5-2.4.3-.2.3-.3.6-.4.9h0c-.7 5.5 1.7 10.9 6.2 14l3.9 2.6z"/>
    <path fill="#9CC153" stroke="#292538" stroke-miterlimit="10" d="M332.3 266.4c.2.4.6.5 1 .3l.3-.3 1.3-2.1c2.3-3.6 2.9-8.1 1.6-12.3l-1.5-4.8c-.4-.9-1.4-1.3-2.2-.9-.3.1-.6.3-.8.6h0c-3.4 4.4-4 10.3-1.6 15.3l1.9 4.2zm26.1-59.6c-.2.4-.6.5-1 .3l-.3-.3-1.2-2.1c-2.2-3.7-2.7-8.2-1.3-12.3l1.7-4.7c.4-.9 1.4-1.3 2.3-.9.3.1.5.3.7.6h0c3.3 4.5 3.8 10.4 1.3 15.3l-2.2 4.1z"/>
    <path fill="#73893D" stroke="#292538" stroke-miterlimit="10" d="M334.1 265.7l2.9-3.1c3.4-3.7 8.1-5.8 13.1-5.8h5.9c1 0 1.9.8 1.9 1.8 0 .4-.1.8-.4 1.2h0c-3.9 5-10.2 7.6-16.5 6.8l-6.9-.9z"/>
    <path fill="#C9E092" stroke="#292538" stroke-miterlimit="10" d="M318.1 280.4l2.9-3.1c3.4-3.7 8.1-5.8 13.1-5.8h5.9c1 0 1.9.8 1.9 1.8 0 .4-.1.8-.4 1.2h0c-3.9 5-10.2 7.6-16.5 6.8l-6.9-.9z"/>
    <path fill="#9CC153" stroke="#292538" stroke-miterlimit="10" d="M316 282.5l2.8-3.8c3.3-4.5 4.3-9.6 2.8-14l-1.8-5.3c-.5-1.4-2.8-1.5-3.9-.1h0c-4.7 5.5-5.9 12.1-3 17.4l3.1 5.8z"/>
    <path fill="#FFF" stroke="#292538" stroke-linecap="round" stroke-linejoin="round" d="M304.8 299.4l2.1-4.2c2.5-5 2.6-10.1.4-14.3l-2.6-4.9c-.7-1.3-3-1-3.9.5h0c-3.8 6.2-3.8 12.9-.1 17.7l4.1 5.2z"/>
    <path fill="#9CC153" stroke="#292538" stroke-miterlimit="10" d="M305.3 297.6l2.9-3.1c3.4-3.7 8.1-5.8 13.1-5.8h5.9c1 0 1.9.8 1.9 1.8 0 .4-.1.8-.4 1.2h0c-3.9 5-10.2 7.6-16.5 6.8l-6.9-.9z"/>
    <path fill="none" stroke="#292538" stroke-linecap="round" stroke-miterlimit="10" d="M226.9 275.2c9 .7 17.7 3.2 25.7 7.4 17.8 9.5 26.9 25.6 31.1 36.1 1.9 4.6 3.1 9.5 3.8 14.4h0m3.6-1.1c13.7-30.5 12.5-51.9 8.6-66-3.4-12.1-9.2-20.4-7.8-33.6 1.7-15.9 12.7-27.8 21.8-35.5"/>
    <path opacity=".75" fill="#161333" d="M310.5 287.3s-8.4 4.7-8.6 6.5 2.2 7.7 3.3 7.1 7.6-3.6 9.5-5.4 3.8-8.3 3.4-9.9-7.6 1.7-7.6 1.7z"/>
    <path fill="#9CC153" stroke="#292538" stroke-miterlimit="10" d="M299.9 306.7l3.1-5.1c2-3.4 5.7-5.4 9.6-5.4h6.5c.6 0 1 .4 1 1 0 .2 0 .4-.1.6l-2.1 3.8c-2 3.6-5.7 5.8-9.8 5.8h-7.9c-.2 0-.4-.2-.4-.4 0-.1 0-.2.1-.3h0z"/>
    <path fill="#73893D" stroke="#292538" stroke-miterlimit="10" d="M296.1 318.9l2.5-5.4c2-3.4 5.7-5.4 9.6-5.4h6.5c.6 0 1 .4 1 1 0 .2 0 .4-.1.6l-2.1 3.8c-2 3.6-5.7 5.8-9.8 5.8l-7.3.3c-.2 0-.4-.2-.4-.4s.1-.2.1-.3h0z"/>
    <path fill="#9CC153" stroke="#292538" stroke-miterlimit="10" d="M300.9 301.8l-.8-6c-.5-3.9-3-7.2-6.6-8.8l-6-2.6c-.5-.2-1.1 0-1.3.5-.1.2-.1.4-.1.5l.4 4.3c.3 4.1 2.9 7.6 6.6 9.3l7.2 3.2c.2.1.4 0 .5-.2.1-.1.1-.2.1-.2h0z"/>
    <path fill="#73893D" stroke="#292538" stroke-miterlimit="10" d="M302.2 292.6l2.5-5.1c1.7-3.4 5-5.6 8.7-6l6.3-.6c.6 0 1 .4 1 .9v.4l-1.6 3.7c-1.6 3.6-5 6-8.9 6.3l-7.6.8c-.2 0-.4-.1-.4-.3v-.1z"/>
    <path fill="#9CC153" stroke="#292538" stroke-miterlimit="10" d="M302.3 287.4l-.7-5.5c-.5-3.7-3-6.8-6.4-8.2l-5.8-2.5c-.5-.2-1.1 0-1.3.5-.1.2-.1.3-.1.5l.4 4c.4 3.8 2.9 7.2 6.4 8.6l7 3c.2.1.4 0 .5-.1 0-.1.1-.2 0-.3zm-.1-9.7l.1-5.6c.1-3.7 2.2-7.1 5.4-9l5.5-3.2c.5-.3 1.1-.1 1.4.4.1.1.1.2.1.4l.1 4.1c0 3.9-2.1 7.5-5.4 9.5l-6.6 3.9c-.2.1-.4.1-.5-.1-.1-.3-.1-.3-.1-.4h0z"/>
    <path fill="#C9E092" stroke="#292538" stroke-miterlimit="10" d="M295.6 254.5l-.1-4.6c0-3.1 1.5-6 4.1-7.6l4.4-2.9c.4-.3.9-.2 1.1.2.1.1.1.2.1.4l.2 3.3c.2 3.2-1.4 6.3-4.1 8l-5.3 3.4c-.1.1-.3 0-.4-.2 0 0 0 0 0 0h0z"/>
    <path fill="#73893D" stroke="#292538" stroke-miterlimit="10" d="M300 267.9l-.7-5.5c-.5-3.7-3-6.8-6.4-8.2l-5.8-2.5c-.5-.2-1.1 0-1.3.5-.1.1-.1.3-.1.5l.4 4c.4 3.8 2.9 7.2 6.4 8.6l7 3c.2.1.4 0 .5-.1v-.3h0zm-6.2-18.4l-.7-4.9c-.5-3.3-2.7-6-5.7-7.2l-5.2-2.2c-.4-.2-1 0-1.2.4-.1.1-.1.3-.1.4l.4 3.5c.4 3.4 2.6 6.3 5.8 7.6l6.3 2.6c.2.1.4 0 .4-.2 0 .1 0 .1 0 0h0z"/>
    <path fill="#C9E092" stroke="#292538" stroke-miterlimit="10" d="M291.8 236.2l.1-4.6c.1-3.1 1.8-5.9 4.5-7.4l4.5-2.6c.4-.2.9-.1 1.1.2.1.1.1.3.1.4l.1 3.4c0 3.2-1.7 6.2-4.5 7.8l-5.5 3.2c-.1.1-.3 0-.4-.1v-.3h0z"/>
    <path fill="#9CC153" stroke="#292538" stroke-miterlimit="10" d="M291.8 232.6l.3-4.9c.1-3.3-1.4-6.4-4.2-8.2l-4.6-3.2c-.4-.3-.9-.2-1.2.2-.1.1-.1.3-.2.4l-.4 3.5c-.3 3.4 1.3 6.7 4.1 8.6l5.6 3.8c.1.1.3.1.4-.1.2 0 .2 0 .2-.1h0zm4.6-15l.8-3.8c.7-3.3-.4-6.7-2.9-9l-1.9-1.7c-.5-.5-1.2-.5-1.7 0-.1.1-.2.3-.3.5l-.1.5c-1 3.2-.3 6.7 1.9 9.3l3.8 4.3c0 .1.1.1.2 0 .2 0 .2-.1.2-.1h0zm1.1-2.8l2.1-3.3c1.8-2.9 4.9-4.6 8.3-4.5l2.5.1c.7 0 1.2.6 1.2 1.2 0 .2 0 .4-.1.5l-.2.4c-1.5 3-4.5 5.1-7.9 5.3l-5.8.4c-.1.2-.1.1-.1-.1-.1.1 0 .1 0 0z"/>
    <path opacity=".75" fill="#161333" d="M291.1 272.8l-.7 8.7 1.9 1.9s2.9-2.6 3.7-5 .2-4.6 0-4.5-1.1-2.2-2.5-1.8-2.4.7-2.4.7z"/>
    <path fill="#F7B907" stroke="#292538" stroke-miterlimit="10" d="M311.3 181.3c-2.3 4.9 1.1 10.5 1.8 11.6 3.5 5.7 9.5 6.8 11.4 7.1.9.2 8.3 1.5 9.8-1.9.6-1.9.1-4-1.5-5.4-2-1.6-5.2-.3-5.3-.7s3-.5 4.6-2.7c1.2-1.7 1.4-3.9.5-5.8-1.3-2.4-4.4-2.8-6.4-2.1-2.9 1-4.4 4.7-4.7 4.5s1.4-2.3 1-4.7c-.4-2.1-2.1-3.9-4.2-4.4-2.9-.7-5.8 2-7 4.5h0z"/>
    <path fill="#292538" stroke="#292538" stroke-width="2" stroke-miterlimit="10" d="M308.3 194.4s2.2-12.4 8.5-11.7c12 1.1 12 7.7 12 10 0 6.2-1.4 10.3-5.5 10.1s-15-8.4-15-8.4z"/>
    <path fill="#F7B907" stroke="#292538" stroke-miterlimit="10" d="M307.8 184.5c-2.7 3.7-3.2 8.5-1.6 12.7 2.7 6.2 9.5 6.9 11.4 7.1 5.1.6 11-1.5 11.2-3.8.1-1.4-1.7-2.9-2.9-3.5-2.5-1.3-5.2-.3-5.3-.7s3.1-.4 4.6-2.7c1-1.7 1.1-3.8.2-5.6-1.3-2.1-3.8-3-6-2.3-2.9.9-4.4 4.7-4.7 4.5s1.2-2.1 1-4.7c-.1-1.6-.8-3.9-2.3-4.5-2.3-.9-5.4 3.2-5.6 3.5h0z"/>
    <path opacity=".67" d="M240.9 242.4h.2l.3.6-.5-.6z"/>
    <path fill="#9CC153" stroke="#292538" stroke-miterlimit="10" d="M239.2 199.5l2.3-5.7c1.4-3.3 1.4-7 0-10.4l-1.3-3.1c-.4-1.1-1.6-1.6-2.7-1.1-.5.2-.9.6-1.1 1l-1.1 2.5c-2.2 4.9-1.4 10.6 2.1 14.7l1.8 2.1M268 314.4h0c5-1.8 10.5-.3 13.9 3.8l3.9 4.6-1.5.5c-4 1.3-8.4.5-11.7-2.1l-5-3.9c-.7-.5-.9-1.5-.4-2.2.3-.4.5-.6.8-.7z"/>
    <path fill="#73893D" stroke="#292538" stroke-miterlimit="10" d="M256.3 299.3h0c5.6-2.7 12.3-1.5 16.6 3.1l4.7 5.1-1.7.8c-4.5 2-9.8 1.5-13.9-1.3l-6-4.2c-.9-.6-1.1-1.9-.5-2.8.2-.3.5-.5.8-.7z"/>
    <path fill="#C9E092" stroke="#292538" stroke-miterlimit="10" d="M241.7 285.4h0c5.2-3.4 12-3 16.8.9l5.3 4.4-1.6 1c-4.3 2.6-9.6 2.8-14 .5l-6.5-3.4c-1-.5-1.4-1.7-.9-2.7.4-.3.6-.5.9-.7h0z"/>
    <path fill="#73893D" stroke="#292538" stroke-miterlimit="10" d="M223.5 282.6h0c2.8-4.8 8.4-7.2 13.8-5.8l5.9 1.6-.9 1.4c-2.3 3.8-6.5 6-11 5.9l-6.4-.3c-1-.1-1.7-1-1.6-2 0-.3.1-.6.2-.8z"/>
    <path fill="#9CC153" stroke="#292538" stroke-miterlimit="10" d="M216.2 277.5h0c2.1-3.2 6.1-4.7 9.9-3.6l4.1 1.3-.7 1c-1.8 2.5-4.8 3.9-7.9 3.7l-4.5-.4c-.7-.1-1.2-.7-1.2-1.4.1-.2.1-.4.3-.6zm69.3 46.4l2.8-2.7c2.4-2.3 3.8-5.4 3.9-8.7l.1-6.4c-.1-.5-.5-.9-1-.8-.2 0-.3.1-.5.2l-2.2 1.9c-3.6 3-5.2 7.8-4.1 12.3l1 4.2zm-5.5-13.2l2.5-3.8c2.1-3.1 2.8-7.1 1.9-10.8l-1.7-7.1c-.2-.6-.9-.8-1.5-.6-.2.1-.3.2-.4.3l-2 2.8c-3.3 4.3-3.7 10.1-1.1 14.8l2.3 4.4zm-10.3-28.4c.9 2.9 1.5 5.8 2 8.8.2 1.9.1 3.9-.4 5.8l-1.8-1.4c-4.5-3.6-6.9-7.3-6.7-11.5-.5-5-3.3-7.5-1.9-7.9s6.9.9 8.8 6.2h0z"/>
    <path fill="#73893D" stroke="#292538" stroke-miterlimit="10" d="M236.3 276l5.9-.6c4.7-.5 9.3 1.4 12.4 5l3.9 4.5c-3.8-1.5-7.6-3.2-11.2-5.1-3.4-1.8-7.1-3.1-11-3.8z"/>
    <path opacity=".75" fill="#161333" d="M278.2 291.3s-1.7 1.9-1.8 3.6 8.4 1.3 8.4 1.3c-.2-1.5-.6-3-1.1-4.5-.7-1.2-5.5-.4-5.5-.4z"/>
    <path fill="none" stroke="#292538" stroke-miterlimit="10" d="M292.4 324.1c.8-9.1.7-22.8-5.8-36.7-7.6-16-18.5-21.1-28.4-33-8.9-10.7-18.8-28.9-19.2-61.3"/>
    <path fill="#9CC153" stroke="#292538" stroke-miterlimit="10" d="M249.4 242.4l-2.8-3.2c-3.2-3.8-7.9-6-12.9-6.2l-5.9-.2c-1 0-1.9.8-1.9 1.8 0 .4.1.8.3 1.1h0c3.7 5.2 9.9 8 16.2 7.4l7-.7z"/>
    <path fill="#73893D" stroke="#292538" stroke-miterlimit="10" d="M243.7 226.8l-1.9-3.6c-2.1-4.2-5.9-7.3-10.4-8.4l-5.3-1.3c-1-.2-2 .5-2.1 1.6-.1.3 0 .7.1 1h0c2.1 5.6 7.2 9.5 13.2 10.1l6.4.6z"/>
    <path fill="#9CC153" stroke="#292538" stroke-miterlimit="10" d="M239.7 211.7c.4 0 .8-.3.8-.7 0-.1 0-.3-.1-.4l-1.1-2.1c-1.9-3.9-5.4-6.7-9.6-7.8l-4.9-1.3c-.9-.1-1.8.5-2 1.5 0 .3 0 .6.1.9h0c2 5.2 6.7 8.8 12.2 9.3l4.6.6zM241.6 214.5c-.3.2-.8.1-1-.2-.1-.1-.1-.2-.1-.4v-2.5c0-4.3 1.9-8.4 5.2-11.2l3.8-3.2c.8-.6 1.8-.4 2.4.4.2.3.3.6.3.9h0c.5 5.5-2.1 10.8-6.7 13.8l-3.9 2.4zm3.3 14.5c-.3.2-.8.1-1-.2-.1-.1-.1-.2-.1-.4v-2.5c0-4.3 1.9-8.4 5.2-11.2l3.8-3.2c.8-.6 1.8-.4 2.4.4.2.3.3.6.3.9h0c.5 5.5-2.1 10.8-6.7 13.8l-3.9 2.4zm3.9 10.8c-.3.2-.8.1-1-.2-.1-.1-.1-.3-.1-.4v-2.4c0-4.3 1.9-8.5 5.2-11.3l3.8-3.2c.8-.6 1.8-.4 2.4.4.2.3.3.6.3.9h0c.5 5.5-2.1 10.8-6.7 13.8l-3.9 2.4zm12.2 17.4c-.2.4-.6.5-1 .3l-.3-.3-1.2-2.1c-2.2-3.7-2.6-8.2-1.1-12.3l1.7-4.7c.4-.9 1.4-1.2 2.3-.8.3.1.5.3.7.6h0c3.2 4.5 3.6 10.4 1.1 15.3l-2.2 4z"/>
    <path fill="#9CC153" stroke="#292538" stroke-miterlimit="10" d="M262 258.9l-2.8-3.2c-3.3-3.8-8-6-13-6.2l-5.9-.2c-1 0-1.9.8-1.9 1.8 0 .4.1.8.3 1.1h0c3.7 5.2 9.9 8 16.2 7.4l7.1-.7z"/>
    <path fill="#73893D" stroke="#292538" stroke-miterlimit="10" d="M277.1 274.4l-2.8-3.2c-3.2-3.8-7.9-6-12.9-6.2l-5.9-.2c-1 0-1.9.8-1.9 1.8 0 .4.1.8.3 1.2h0c3.7 5.2 9.9 8 16.2 7.4l7-.8z"/>
    <path fill="#C9E092" stroke="#292538" stroke-miterlimit="10" d="M276.3 272.8l-2.6-3.9c-3.1-4.6-3.9-9.7-2.3-14.1l2-5.2c.5-1.4 2.8-1.4 3.9 0h0c4.5 5.6 5.4 12.3 2.4 17.5l-3.4 5.7z"/>
    <path fill="#9CC153" stroke="#292538" stroke-miterlimit="10" d="M286.5 288.9l-2-4.3c-2.3-5-2.3-10.2.1-14.3l2.8-4.8c.7-1.3 3-.9 3.9.6h0c3.5 6.3 3.3 13-.6 17.7l-4.2 5.1zm1.1 2l-2-2.3c-3.2-3.8-7.9-6-12.9-6.2l-5.9-.2c-1 0-1.9.8-1.9 1.8 0 .4.1.8.3 1.2h0c3.7 5.2 9.9 8 16.2 7.4l5.8-.5c.3 0 .6-.3.5-.7 0-.3 0-.4-.1-.5h0z"/>
    <path fill="#FFF" stroke="#292538" stroke-linecap="round" stroke-miterlimit="10" d="M276.3 272.8c-.3-1.3-.4-2.6-.3-3.9.2-1.4.2-2.7.1-4.1m-6.4 7.2c1 .2 1.9.4 2.9.8 1.3.4 2.6.8 4 1.1m10.2 14.1s-1.3-1.6-.6-2.3.6-3.6.6-3.6m-6 6.7l2.9 1 4.7 2"/>
    <path fill="none" stroke="#292538" stroke-linecap="round" stroke-miterlimit="10" d="M299.7 308.4c.7-1.3 1.8-2.4 3.1-3.2 1.2-.7 2.5-1.1 3.8-1.1m-9.3-6.3c.8.6 1.5 1.2 2 2 .6.9 1.1 1.9 1.3 3m2-9.8c.8-.8 1.6-1.6 2.5-2.2 1.1-.8 2.4-1.5 3.7-2m-6.6-11.1c.1-1.6.6-3.1 1.5-4.4.9-1.3 2.2-2.4 3.7-3m-13.3-8.8c2.4 1.8 4.3 4.1 5.7 6.7m-1.5 14.4c1.6 1.7 3 3.7 4 5.8m-6.3-33.7c0-1.9 1-3.6 2.6-4.6m-8.5-4.1c.5.3 1 .6 1.5 1 1 .8 1.7 1.8 2.2 3m1.6-18.7c-1.9 1.2-3.1 3.2-3.4 5.5m-3.8-10.2c.7.7 1.4 1.4 1.9 2.3.8 1.4 1.4 2.9 1.5 4.6m6.3-18.5l3.5-2.6m-6.9-.4c.3.7.6 1.3.9 2.1.4 1.1.7 2.2.9 3.3m-35.6 39.5c-.3-1.5-.4-3.1-.3-4.6.1-1.2.2-2.5.5-3.7m-9.9 7.5c1.5.1 3.1.3 4.6.6 1.8.4 3.6 1 5.4 1.7m-12.8-18.5c.3-1 .7-2 1.3-2.9.7-1.1 1.7-2 2.8-2.7m-12.1 5.7c.9.1 1.8.3 2.8.5 2.1.5 4.1 1.1 6.1 1.9m-5-13.4c.3-1 .7-1.9 1.2-2.9s1.2-1.9 1.9-2.8m-10.4-.7c1.4.5 2.7 1.1 4 1.8 1 .6 1.9 1.3 2.7 2m52.5 92.5c.8-.7 1.7-1.3 2.6-1.8.6-.4 1.3-.7 1.9-1"/>
    <path fill="#FFF" stroke="#292538" stroke-linecap="round" stroke-miterlimit="10" d="M319.3 280c1.3-.9 2.7-1.5 4.2-1.9 1.4-.4 2.9-.4 4.4-.2m-11.5 2.8c0-1.4.1-2.9.1-4.4s.1-2.9.2-4.3m18.8-6.6c2.5-1.7 5.7-2.2 8.7-1.4m-11.7 2.7c.3-1 .5-2.1.6-3.1.2-1.7.1-3.3-.1-5m13.8-9.5c1.3-.8 2.6-1.4 4.1-1.7 1-.3 2-.4 3-.4m-12.2-2.7c.7.9 1.4 1.8 2.1 2.9s1.4 2.1 2 3.1m6.9-16.4c.5-.9 1.2-1.6 2-2.2 1.2-.8 2.5-1.2 3.9-1.2m-9.7.3c.6 2.1 1.6 4.1 2.8 6"/>
    <path fill="#9CC153" stroke="#292538" stroke-miterlimit="10" d="M356.1 219.3c.8-1 1.7-1.8 2.9-2.4 1.1-.6 2.4-1 3.7-1.1"/>
    <path fill="#FFF" stroke="#292538" stroke-linecap="round" stroke-miterlimit="10" d="M352.8 216.8c.4.6.8 1.3 1.1 2 .5 1 .8 2 1.1 3m2.7-15.3c.1-.9.1-1.9.2-2.8 0-.7 0-1.4.1-2.1m-72.3 121.7c.1-.8.2-1.7.4-2.6s.4-1.8.6-2.6m-6.7 3.1c.6.1 1.3.3 1.9.5 1.1.3 2.2.6 3.2.9m-5.2-12.5c-.1-1-.1-2.1 0-3.1.1-1.5.3-2.9.7-4.4m-11.2 1.5c2.1 2.1 4.9 3.4 7.9 3.6m-6.5-11.2c-.5-1.1-.9-2.2-1.2-3.3-.2-.8-.4-1.6-.5-2.4m-10.5-.9c.8 0 1.6 0 2.5.1.9.1 1.9.4 2.8.7m-28.1-10.6c.9-.1 1.8-.3 2.7-.5 1.4-.3 2.8-.7 4.1-1.3"/>
    <path fill="none" stroke="#292538" stroke-linecap="round" stroke-miterlimit="10" d="M241.2 214.1c0-1.3.5-2.6 1.2-3.7.6-.8 1.3-1.5 2.1-2m-11.8-1.2c1.1.3 2.3.7 3.3 1.2 1.6.8 3 1.7 4.4 2.8m64.1 116.3l12.6-11.8c2.4-2.3 5.1-4.2 8.1-5.8l4.8-2.6m-14.2 10.1h11"/>
    <circle fill="none" stroke="#292538" stroke-linecap="round" stroke-miterlimit="10" cx="328.4" cy="317.9" r="1.6"/>
    <circle fill="none" stroke="#292538" stroke-linecap="round" stroke-miterlimit="10" cx="331.4" cy="306.7" r="1.4"/>
    <path fill="#9CC153" d="M61.7 183.7l-11.8-10.2c-1.7-1.4-1.8-4-.4-5.6 1.4-1.7 4-1.8 5.6-.4l5.8 5c.9.8 2.3.7 3.1-.2l16-18.1c1.5-1.7 4-1.8 5.6-.3 1.6 1.5 1.8 4 .3 5.6l-21.3 24c-.6.9-2 1-2.9.2z"/>
    <path fill="#F7B907" stroke="#292538" stroke-miterlimit="10" d="M116.4 340.4h108.7c11.9 0 21.6 9.7 21.6 21.6v0c0 11.9-9.7 21.6-21.6 21.6H116.4c-11.9 0-21.6-9.7-21.6-21.6v0c0-11.9 9.7-21.6 21.6-21.6z"/>
    <circle fill="#FFF" cx="218.7" cy="362" r="12.6"/>
    <path fill="none" stroke="#292538" stroke-width="2" stroke-linecap="round" stroke-linejoin="round" d="M216.9 367.7l5.4-5.7-5.4-5.7"/>
</svg>
