<svg xmlns="http://www.w3.org/2000/svg" xmlns:xlink="http://www.w3.org/1999/xlink" width="400.6" height="406.5" viewBox="0 0 400.6 406.5">
    <path fill="#F2F7F9" d="M63 0h280.9c20.2 0 36.5 16.4 36.5 36.5v333.4c0 20.2-16.4 36.5-36.5 36.5H63c-20.2 0-36.5-16.4-36.5-36.5V36.6C26.5 16.4 42.8 0 63 0z"/>
    <defs>
        <path id="a" d="M63 0h280.9c20.2 0 36.5 16.4 36.5 36.5v333.4c0 20.2-16.4 36.5-36.5 36.5H63c-20.2 0-36.5-16.4-36.5-36.5V36.6C26.5 16.4 42.8 0 63 0z"/>
    </defs>
    <clipPath id="b">
        <use xlink:href="#a" overflow="visible"/>
    </clipPath>
    <g clip-path="url(#b)">
        <path fill="none" stroke="#FFF" stroke-width="2" stroke-miterlimit="10" d="M-1.8-16.3C125.9-16.9 236.1 32 261.9 107 309.9 246 59 448.2-28.2 407.8c-60.6-28-75.3-188.5-13.5-236.7C67.4 85.9 451 324.3 426.6 421.4 413 475.6 267.9 502.5 155.7 462 77.9 434-21.9 359.9-21.1 275.3-19.5 121.2 315.8-16 410.2 65.7c54.2 47 45.5 180.6-12.8 216C277.7 354.2-97.6 42.6-56.7-56.2c22.6-54.6 177.7-57.1 285.9-2.1C354 5.1 426.8 150.8 405.9 305.9"/>
    </g>
    <path fill="#EDF1F4" stroke="#8B95A0" stroke-linejoin="round" d="M12.3 298.8L96 352.6c.8.5 1.7.8 2.7.8l153.6.8c6 0 11.7-2.4 15.8-6.8h0L145 308.8 17.8 291.7l-6.9-.7c-.7-.1-1.3.4-1.3 1.1v.3l.5 2.9c.2 1.5 1 2.7 2.2 3.5 0 0 0 0 0 0z"/>
    <path fill="#555B60" stroke="#555B60" stroke-width="2" stroke-miterlimit="10" d="M173.2 289.6H11.3L2 190c-.3-3.5 2.3-6.7 5.9-7h149.5c3.3 0 6.1 2.5 6.4 5.9l9.4 100.7h0z"/>
    <path fill="#FFF" stroke="#FCFCFC" stroke-linecap="round" stroke-miterlimit="10" d="M2.5 195.5h162"/>
    <circle fill="#FFF" stroke="#FCFCFC" stroke-linecap="round" stroke-miterlimit="10" cx="87.6" cy="188.5" r="1.6"/>
    <path fill="#EDF1F4" stroke="#8B95A0" stroke-linecap="round" stroke-linejoin="round" d="M10.4 290.8l86.3 54.3c.8.5 1.7.8 2.6.8l168.7 1.4-93.6-56.5h-164 0z"/>
    <path fill="#555B60" d="M52.5 303.7h-4.4c-.3 0-.6-.1-.9-.3l-2.3-1.9c-.6-.5-.7-1.4-.2-2 .3-.3.7-.5 1.1-.5h4.4c.3 0 .6.1.9.3l2.3 1.9c.6.5.7 1.4.3 2-.4.3-.8.6-1.2.5zm11 0h-4.4c-.3 0-.6-.1-.9-.3l-2.3-1.9c-.6-.5-.7-1.4-.3-2 .3-.4.7-.6 1.1-.6h4.4c.3 0 .6.1.9.3l2.4 1.9c.6.5.7 1.4.2 2-.3.5-.7.6-1.1.6zm11 0h-4.4c-.3 0-.6-.1-.9-.3l-2.4-1.9c-.6-.5-.7-1.4-.3-2 .3-.4.7-.6 1.1-.6H72c.3 0 .6.1.9.3l2.4 1.9c.6.5.7 1.4.2 2-.1.4-.5.6-1 .6zm11.1 0h-4.4c-.3 0-.6-.1-.9-.3l-2.3-1.9c-.6-.5-.7-1.4-.2-2 .3-.3.7-.5 1.1-.5h4.4c.3 0 .6.1.9.3l2.3 1.9c.6.5.7 1.4.3 2-.3.4-.8.6-1.2.5zm11 0h-4.4c-.3 0-.6-.1-.9-.3l-2.3-1.9c-.6-.5-.7-1.4-.3-2 .3-.4.7-.6 1.1-.6h4.4c.3 0 .6.1.9.3l2.3 1.9c.6.5.7 1.4.3 2-.2.4-.7.7-1.1.6zm11 0h-4.4c-.3 0-.6-.1-.9-.3l-2.4-1.9c-.6-.5-.7-1.4-.3-2 .3-.4.7-.6 1.1-.6h4.4c.3 0 .6.1.9.3l2.4 1.9c.6.5.7 1.4.2 2-.2.4-.6.6-1 .6zm11.1 0h-4.4c-.3 0-.6-.1-.9-.3l-2.4-1.9c-.6-.5-.7-1.4-.2-2 .3-.3.7-.5 1.1-.5h4.4c.3 0 .6.1.9.3l2.4 1.9c.6.5.7 1.4.2 2-.3.4-.7.6-1.1.5zm11 0h-4.4c-.3 0-.6-.1-.9-.3l-2.4-1.9c-.6-.5-.7-1.4-.2-2 .3-.3.7-.5 1.1-.5h4.4c.3 0 .6.1.9.3l2.3 1.9c.6.5.7 1.4.2 2-.2.4-.6.5-1 .5zm11 0h-4.4c-.3 0-.6-.1-.9-.3l-2.3-1.9c-.6-.5-.7-1.4-.2-2 .3-.3.7-.5 1.1-.5h4.4c.3 0 .6.1.9.3l2.4 1.9c.6.5.7 1.4.2 2-.4.3-.8.5-1.2.5zm11.1 0h-4.4c-.3 0-.6-.1-.9-.3l-2.4-1.9c-.6-.5-.7-1.4-.3-2 .3-.4.7-.6 1.1-.6h4.4c.3 0 .6.1.9.3l2.4 1.9c.6.5.7 1.4.2 2-.2.4-.6.6-1 .6zm11 0h-4.4c-.3 0-.6-.1-.9-.3l-2.4-1.9c-.6-.5-.7-1.4-.2-2 .3-.3.7-.5 1.1-.5h4.4c.3 0 .6.1.9.3l2.4 1.9c.6.5.7 1.4.3 2-.3.3-.8.6-1.2.5zm11 0h-4.4c-.3 0-.6-.1-.9-.3l-2.4-1.9c-.6-.5-.7-1.4-.2-2 .3-.3.7-.5 1.1-.5h4.4c.3 0 .6.1.9.3l2.3 1.9c.6.5.7 1.4.3 2-.2.3-.6.6-1.1.5zM62.8 310.6h-4.4c-.3 0-.6-.1-.9-.3l-2.3-1.9c-.6-.5-.7-1.4-.3-2 .3-.4.7-.6 1.1-.6h4.4c.3 0 .6.1.9.3l2.3 1.8c.6.5.8 1.3.4 2-.3.5-.7.8-1.2.7zm11 0h-4.4c-.3 0-.6-.1-.9-.3l-2.3-1.9c-.6-.5-.7-1.4-.3-2 .3-.4.7-.6 1.1-.6h4.4c.3 0 .6.1.9.3l2.4 1.8c.6.5.8 1.4.3 2-.3.5-.7.8-1.2.7zm11 0h-4.4c-.3 0-.6-.1-.9-.3l-2.4-1.9c-.6-.5-.7-1.4-.2-2 .3-.3.7-.5 1.1-.5h4.4c.3 0 .6.1.9.3l2.4 1.8c.6.5.8 1.3.4 2-.3.4-.8.7-1.3.6zm11.1 0h-4.4c-.3 0-.6-.1-.9-.3l-2.4-1.9c-.6-.5-.7-1.4-.2-2 .3-.3.7-.5 1.1-.5h4.4c.3 0 .6.1.9.3l2.3 1.8c.6.5.8 1.3.4 2-.3.4-.7.7-1.2.6zm11 0h-4.4c-.3 0-.6-.1-.9-.3l-2.3-1.9c-.6-.5-.7-1.4-.3-2 .3-.4.7-.6 1.1-.6h4.4c.3 0 .6.1.9.3l2.4 1.9c.6.5.7 1.4.2 2-.3.4-.7.6-1.1.6zm11.1 0h-4.4c-.3 0-.6-.1-.9-.3l-2.4-1.9c-.6-.5-.7-1.4-.3-2 .3-.4.7-.6 1.1-.6h4.4c.3 0 .6.1.9.3l2.4 1.9c.6.5.7 1.4.2 2-.2.4-.6.6-1 .6zm11 0h-4.4c-.3 0-.6-.1-.9-.3l-2.4-1.9c-.6-.5-.7-1.4-.2-2 .3-.3.7-.5 1.1-.5h4.4c.3 0 .6.1.9.3l2.3 1.9c.6.5.7 1.4.3 2-.2.3-.7.5-1.1.5zm11 0h-4.4c-.3 0-.6-.1-.9-.3l-2.3-1.9c-.6-.5-.7-1.4-.3-2 .3-.4.7-.6 1.1-.6h4.4c.3 0 .6.1.9.3l2.4 1.8c.6.5.8 1.3.4 2-.3.5-.8.8-1.3.7zm11 0h-4.4c-.3 0-.6-.1-.9-.3l-2.3-1.9c-.6-.5-.7-1.4-.3-2 .3-.4.7-.6 1.1-.6h4.4c.3 0 .6.1.9.3l2.4 1.9c.6.5.7 1.4.2 2-.3.4-.7.6-1.1.6zm11.1 0h-4.4c-.3 0-.6-.1-.9-.3l-2.4-1.9c-.6-.5-.7-1.4-.2-2 .3-.3.7-.5 1.1-.5h4.4c.3 0 .6.1.9.3l2.4 1.8c.6.5.8 1.4.3 2-.3.4-.7.7-1.2.6zm11 0h-4.4c-.3 0-.6-.1-.9-.3l-2.4-1.9c-.6-.5-.7-1.4-.2-2 .3-.3.7-.5 1.1-.5h4.4c.3 0 .6.1.9.3l2.3 1.8c.6.5.8 1.3.4 2-.2.4-.7.7-1.2.6zm11 0h-4.4c-.3 0-.6-.1-.9-.3l-2.3-1.9c-.6-.5-.7-1.4-.3-2 .3-.4.7-.6 1.1-.6h4.4c.3 0 .6.1.9.3l2.3 1.8c.6.5.8 1.4.3 2-.2.5-.6.7-1.1.7zM74.5 317.5h-4.4c-.3 0-.6-.1-.9-.3l-2.4-1.9c-.6-.5-.7-1.4-.3-2 .3-.4.7-.6 1.1-.6H72c.3 0 .6.1.9.3l2.4 1.9c.6.5.7 1.4.2 2-.1.4-.5.6-1 .6zm11.1 0h-4.4c-.3 0-.6-.1-.9-.3l-2.3-1.9c-.6-.5-.7-1.4-.2-2 .3-.3.7-.5 1.1-.5h4.4c.3 0 .6.1.9.3l2.3 1.9c.6.5.7 1.4.3 2-.3.3-.8.6-1.2.5zm11 0h-4.4c-.3 0-.6-.1-.9-.3l-2.3-1.9c-.6-.5-.7-1.4-.3-2 .3-.4.7-.6 1.1-.6h4.4c.3 0 .6.1.9.3l2.3 1.9c.6.5.7 1.4.3 2-.2.4-.7.6-1.1.6zm11 0h-4.4c-.3 0-.6-.1-.9-.3l-2.4-1.9c-.6-.5-.7-1.4-.3-2 .3-.4.7-.6 1.1-.6h4.4c.3 0 .6.1.9.3l2.4 1.9c.6.5.7 1.4.2 2-.2.4-.6.6-1 .6zm11.1 0h-4.4c-.3 0-.6-.1-.9-.3l-2.4-1.9c-.6-.5-.7-1.4-.2-2 .3-.3.7-.5 1.1-.5h4.4c.3 0 .6.1.9.3l2.4 1.9c.6.5.7 1.4.2 2-.3.3-.7.5-1.1.5zm11 0h-4.4c-.3 0-.6-.1-.9-.3l-2.4-1.9c-.6-.5-.7-1.4-.2-2 .3-.3.7-.5 1.1-.5h4.4c.3 0 .6.1.9.3l2.3 1.9c.6.5.7 1.4.3 2-.2.3-.7.5-1.1.5zm11 0h-4.4c-.3 0-.6-.1-.9-.3l-2.3-1.9c-.6-.5-.7-1.4-.3-2 .3-.4.7-.6 1.1-.6h4.4c.3 0 .6.1.9.3l2.4 1.9c.6.5.7 1.4.2 2-.2.4-.6.6-1.1.6zm11.1 0h-4.4c-.3 0-.6-.1-.9-.3l-2.4-1.9c-.6-.5-.7-1.4-.3-2 .3-.4.7-.6 1.1-.6h4.4c.3 0 .6.1.9.3l2.4 1.9c.6.5.7 1.4.2 2-.2.4-.6.6-1 .6zm11 0h-4.4c-.3 0-.6-.1-.9-.3l-2.4-1.9c-.6-.5-.7-1.4-.2-2 .3-.3.7-.5 1.1-.5h4.4c.3 0 .6.1.9.3l2.4 1.9c.6.5.7 1.4.3 2-.3.3-.8.5-1.2.5zm11 0h-4.4c-.3 0-.6-.1-.9-.3l-2.4-1.9c-.6-.5-.7-1.4-.2-2 .3-.3.7-.5 1.1-.5h4.4c.3 0 .6.1.9.3l2.3 1.9c.6.5.7 1.4.3 2-.2.3-.6.5-1.1.5zm11 0h-4.4c-.3 0-.6-.1-.9-.3l-2.3-1.9c-.6-.5-.7-1.4-.3-2 .3-.4.7-.6 1.1-.6h4.4c.3 0 .6.1.9.3l2.4 1.9c.6.5.7 1.4.2 2-.2.4-.6.6-1.1.6zm11.1 0h-4.4c-.3 0-.6-.1-.9-.3l-2.4-1.9c-.6-.5-.7-1.4-.2-2 .3-.3.7-.5 1.1-.5h4.4c.3 0 .6.1.9.3l2.4 1.9c.6.5.7 1.4.2 2-.3.3-.7.5-1.1.5zM84.8 324.5h-4.4c-.3 0-.6-.1-.9-.3l-2.4-1.9c-.6-.5-.7-1.4-.2-2 .3-.3.7-.5 1.1-.5h4.4c.3 0 .6.1.9.3l2.4 1.9c.6.5.7 1.4.3 2-.3.3-.7.5-1.2.5zm11.1 0h-4.4c-.3 0-.6-.1-.9-.3l-2.4-1.9c-.6-.5-.7-1.4-.2-2 .3-.3.7-.5 1.1-.5h4.4c.3 0 .6.1.9.3l2.3 1.9c.6.5.7 1.4.3 2-.3.3-.7.5-1.1.5zm11 0h-4.4c-.3 0-.6-.1-.9-.3l-2.3-1.9c-.6-.5-.7-1.4-.3-2 .3-.4.7-.6 1.1-.6h4.4c.3 0 .6.1.9.3l2.4 1.9c.6.5.7 1.4.2 2-.3.4-.7.6-1.1.6zm11.1 0h-4.4c-.3 0-.6-.1-.9-.3l-2.4-1.9c-.6-.5-.7-1.4-.3-2 .3-.4.7-.6 1.1-.6h4.4c.3 0 .6.1.9.3l2.4 1.9c.6.5.7 1.4.2 2-.2.4-.6.6-1 .6zm11 0h-4.4c-.3 0-.6-.1-.9-.3l-2.4-1.9c-.6-.5-.7-1.4-.2-2 .3-.3.7-.5 1.1-.5h4.4c.3 0 .6.1.9.3l2.3 1.9c.6.5.7 1.4.3 2-.2.3-.7.5-1.1.5zm11 0h-4.4c-.3 0-.6-.1-.9-.3l-2.3-1.9c-.6-.5-.7-1.4-.3-2 .3-.4.7-.6 1.1-.6h4.4c.3 0 .6.1.9.3l2.3 1.9c.6.5.7 1.4.3 2-.2.4-.7.6-1.1.6zm11 0h-4.4c-.3 0-.6-.1-.9-.3l-2.3-1.9c-.6-.5-.7-1.4-.3-2 .3-.4.7-.6 1.1-.6h4.4c.3 0 .6.1.9.3l2.4 1.9c.6.5.7 1.4.2 2-.3.4-.7.6-1.1.6zm11.1 0h-4.4c-.3 0-.6-.1-.9-.3l-2.4-1.9c-.6-.5-.7-1.4-.2-2 .3-.3.7-.5 1.1-.5h4.4c.3 0 .6.1.9.3l2.4 1.9c.6.5.7 1.4.2 2-.3.3-.7.5-1.1.5zm11 0h-4.4c-.3 0-.6-.1-.9-.3l-2.4-1.9c-.6-.5-.7-1.4-.2-2 .3-.3.7-.5 1.1-.5h4.4c.3 0 .6.1.9.3l2.3 1.9c.6.5.7 1.4.3 2-.2.3-.7.5-1.1.5zm11 0h-4.4c-.3 0-.6-.1-.9-.3l-2.3-1.9c-.6-.5-.7-1.4-.3-2 .3-.4.7-.6 1.1-.6h4.4c.3 0 .6.1.9.3l2.4 1.9c.6.5.7 1.4.2 2-.2.4-.6.6-1.1.6zm11.1 0h-4.4c-.3 0-.6-.1-.9-.3l-2.4-1.9c-.6-.5-.7-1.4-.3-2 .3-.4.7-.6 1.1-.6h4.4c.3 0 .6.1.9.3l2.4 1.9c.6.5.7 1.4.2 2-.2.4-.6.6-1 .6zm11 0h-4.4c-.3 0-.6-.1-.9-.3l-2.4-1.9c-.6-.5-.7-1.4-.2-2 .3-.3.7-.5 1.1-.5h4.4c.3 0 .6.1.9.3l2.4 1.9c.6.5.7 1.4.3 2-.3.3-.8.5-1.2.5z" opacity=".41"/>
    <path fill="#555B60" d="M98.9 345.8l-1 7.5-81.4-51.9s-6.1-3.4-6-4c-.1-1.2-.4-2.4-.7-3.6V291l2.3.9 86.8 53.9z"/>
    <circle fill="#FFF" cx="16.1" cy="298" r="1"/>
    <path opacity=".67" d="M134.6 76.8c-4.2 0-7.6 3.4-7.6 7.6V215c0 4.2 3.4 7.6 7.6 7.6h33.2l-3.3-48.8"/>
    <path fill="#FFF" stroke="#8B95A0" stroke-miterlimit="10" d="M111.2 53h205.1c4.2 0 7.6 3.4 7.6 7.6v130.5c0 4.2-3.4 7.6-7.6 7.6H111.2c-4.2 0-7.6-3.4-7.6-7.6V60.5c.1-4.1 3.5-7.5 7.6-7.5z"/>
    <path fill="#EDF1F4" d="M114.5 60.5h198.7v130.6H114.5V60.5z"/>
    <path fill="#EDF1F4" stroke="#8B95A0" stroke-linecap="round" stroke-linejoin="round" d="M125.5 69.2h147.6c1.6 0 3 1.3 3 2.9s-1.3 2.9-3 2.9H125.5c-1.6 0-2.9-1.3-2.9-2.9-.1-1.6 1.3-2.9 2.9-2.9z"/>
    <circle fill="#555B60" cx="284" cy="72.2" r="3"/>
    <circle fill="#555B60" cx="294" cy="72.2" r="3"/>
    <circle fill="#555B60" cx="304" cy="72.2" r="3"/>
    <path fill="#555B60" d="M125.4 86h10.2v10.2h-10.2V86zm11.9 0h10.2v10.2h-10.2V86zm-11.9 12h10.2v10.2h-10.2V98z"/>
    <path fill="#FFF" stroke="#8B95A0" stroke-miterlimit="10" d="M167.2 105.8h58.9c2 0 3.7 1.7 3.7 3.7v45.3c0 2-1.7 3.7-3.7 3.7h-58.9c-2 0-3.7-1.7-3.7-3.7v-45.3c0-2 1.7-3.7 3.7-3.7h0z"/>
    <path fill="#555B60" d="M174.2 151.2h43.4c1.3 0 2.4-1.1 2.4-2.4 0-.6-.3-1.2-.7-1.7l-7.1-7.3c-.8-.8-2.1-1-3.1-.3l-7.7 5.3c-1.1.8-2.6.5-3.4-.6 0 0 0-.1-.1-.1l-10.6-17.6c-.7-1.2-2.2-1.5-3.4-.8-.4.2-.7.6-.9.9l-11.1 21.1c-.6 1.2-.2 2.7 1 3.3.5.1.9.2 1.3.2z"/>
    <circle fill="#555B60" cx="213.8" cy="125.5" r="5.2"/>
    <path opacity=".67" d="M244.5 132.5c-20.4 0-36.9 16.5-36.9 36.9 0 11.6 5.5 22.6 14.8 29.5l43.9.3c16.5-12 20.1-35.1 8.1-51.6-7-9.5-18.1-15.1-29.9-15.1z"/>
    <circle fill="#FFF" stroke="#8B95A0" stroke-linejoin="round" cx="260.5" cy="149.6" r="36.9"/>
    <path fill="#8B95A0" d="M273.9 140.2l-11.1-10.6c-1.2-1.2-3.2-1.2-4.5 0l-11.1 10.6c-1.3 1.2-1.4 3.2-.2 4.5s3.2 1.4 4.5.2l.1-.1 5.7-5.4v27.9c-.1 1.8 1.3 3.3 3 3.4s3.3-1.3 3.4-3v-28.3l5.7 5.4c1.3 1.2 3.3 1.1 4.5-.2 1.3-1.2 1.2-3.2 0-4.4z"/>
    <path fill="#EDF1F4" stroke="#8B95A0" stroke-linecap="round" stroke-linejoin="round" d="M207.2 406.5v-148c0-11.8 9.9-21.4 22.1-21.4h80.3c12.2 0 22 9.6 22 21.4v148"/>
    <path fill="#555B60" d="M213.7 406.5V256.1c-.1-6.2 4.9-11.4 11.1-11.5H314c6.2.1 11.2 5.3 11.1 11.5v150.4"/>
    <path fill="#EDF1F4" d="M299 243.5c0 3.7-3.7 6.6-8.4 6.6h-42.5c-4.6 0-8.4-3-8.4-6.6"/>
    <path fill="#EDF1F4" stroke="#8B95A0" stroke-linecap="round" stroke-linejoin="round" d="M331.6 273.3c1.9 0 3.4 1.5 3.4 3.4v7c0 1.9-1.5 3.4-3.4 3.4v-13.8zm0 15.7c1.9 0 3.4 1.5 3.4 3.4v7c0 1.9-1.5 3.4-3.4 3.4V289z"/>
    <path fill="#555B60" d="M249.1 243.5h39.3c.9 0 1.7.7 1.7 1.7 0 .9-.7 1.7-1.7 1.7h-39.3c-.9 0-1.7-.7-1.7-1.7 0-.9.8-1.7 1.7-1.7z"/>
    <path opacity=".67" d="M380.4 233.9L343 221l17.6-48.4 19.9 7.2m-48.9 184.3V316h-39.5v45.2c.2.8.6 1.6 1.2 2.1.8.6 1.8.9 2.7.7M76.7 148.6l-49.6 5.7-.7-51.2 44.3-5.8 6 51.3z"/>
    <path fill="#FFF" stroke="#8B95A0" stroke-width=".997" stroke-miterlimit="10" d="M10.1 94.3l49.4-6 6.2 51-49.4 6-6.2-51z"/>
    <path fill="#FFF" stroke="#8B95A0" stroke-miterlimit="10" d="M65.1 140.1l-49.6 5.8"/>
    <path fill="#555B60" d="M15.4 98.8l39.4-4.6 3.5 30.6-39.4 4.6-3.5-30.6z"/>
    <path fill="#FFF" stroke="#8B95A0" stroke-miterlimit="10" d="M353 158.8l46.9 17-17.5 48.4-46.9-17 17.5-48.4h0z"/>
    <path fill="#555B60" d="M356 165.6l37.3 13.5-10.5 29-37.3-13.5 10.5-29z"/>
    <path fill="#FFF" stroke="#8B95A0" stroke-miterlimit="10" d="M352 372.2V324h-49.9v45.2c.2.8.6 1.6 1.2 2.1.8.6 1.8.9 2.7.7"/>
    <path fill="#555B60" d="M307.4 328.8H347v30.8h-39.6v-30.8z"/>
    <path fill="#FFF" stroke="#8B95A0" stroke-miterlimit="10" d="M302.2 368.8c.1 1.9 1.7 3.3 3.6 3.2 1.7-.1 3.1-1.5 3.2-3.2h46.4c0 1.9-1.5 3.4-3.4 3.4h-46.1"/>
    <defs>
        <path id="c" transform="rotate(-6.609 36.842 111.794)" d="M17 96.4h39.7v30.8H17z"/>
    </defs>
    <clipPath id="d">
        <use xlink:href="#c" overflow="visible"/>
    </clipPath>
    <g clip-path="url(#d)">
        <path opacity=".3" fill="none" stroke="#FFF" stroke-miterlimit="10" d="M-1.1 117.7c13.1 2.7 27.9 3.5 34.9-4.6 8-9.3.3-23.5 8.6-29.9 7.1-5.5 20.6-1.1 28.5 5.4 10.9 9 16.5 26.5 10.7 33.2C68.5 136.6-.3 93-2.9 97.4c-1.3 2.2 14.4 15.1 73.8 54.2"/>
    </g>
    <defs>
        <path id="e" transform="rotate(-70.038 369.358 186.795)" d="M354 167h30.8v39.6H354z"/>
    </defs>
    <clipPath id="f">
        <use xlink:href="#e" overflow="visible"/>
    </clipPath>
    <g clip-path="url(#f)">
        <path opacity=".3" fill="none" stroke="#FFF" stroke-miterlimit="10" d="M334.6 162.3c9.9 11.4 17.3 13.3 22.5 12.8 11.9-1.1 17.6-16.2 29.2-14.6 4 .5 6.6 2.7 9.3 5 11.9 10 15.7 30.4 9.6 34.9-5.8 4.3-15.7-9.4-35.3-11.8-15.8-1.9-30 4.5-40.6 11.4"/>
    </g>
    <defs>
        <path id="g" d="M307.4 328.8H347v30.8h-39.6z"/>
    </defs>
    <clipPath id="h">
        <use xlink:href="#g" overflow="visible"/>
    </clipPath>
    <g clip-path="url(#h)">
        <path opacity=".3" fill="none" stroke="#FFF" stroke-miterlimit="10" d="M312.2 308.4c9.8 14.8 9.4 22.3 7.1 26.4-4.5 8.4-17.5 5-25.7 15.7-6 7.9-6.7 20.1-2.9 22.5 4.4 2.8 12.6-8.8 34.3-21 13.5-7.6 28-15.9 36.6-10.3 7.3 4.7 9 18.5 5.3 20.7s-14-5.2-42-39.6"/>
    </g>
    <path fill="#F0F5FF" d="M63 0h280.9c20.2 0 36.5 16.4 36.5 36.5v333.4c0 20.2-16.4 36.5-36.5 36.5H63c-20.2 0-36.5-16.4-36.5-36.5V36.6C26.5 16.4 42.8 0 63 0z"/>
    <defs>
        <path id="i" d="M63 0h280.9c20.2 0 36.5 16.4 36.5 36.5v333.4c0 20.2-16.4 36.5-36.5 36.5H63c-20.2 0-36.5-16.4-36.5-36.5V36.6C26.5 16.4 42.8 0 63 0z"/>
    </defs>
    <clipPath id="j">
        <use xlink:href="#i" overflow="visible"/>
    </clipPath>
    <g clip-path="url(#j)">
        <path fill="none" stroke="#FFF" stroke-width="2" stroke-miterlimit="10" d="M-1.8-16.3C125.9-16.9 236.1 32 261.9 107 309.9 246 59 448.2-28.2 407.8c-60.6-28-75.3-188.5-13.5-236.7C67.4 85.9 451 324.3 426.6 421.4 413 475.6 267.9 502.5 155.7 462 77.9 434-21.9 359.9-21.1 275.3-19.5 121.2 315.8-16 410.2 65.7c54.2 47 45.5 180.6-12.8 216C277.7 354.2-97.6 42.6-56.7-56.2c22.6-54.6 177.7-57.1 285.9-2.1C354 5.1 426.8 150.8 405.9 305.9"/>
    </g>
    <path fill="#3987E0" stroke="#292538" stroke-miterlimit="10" d="M12.3 298.8L96 352.6c.8.5 1.7.8 2.7.8l153.6.8c6 0 11.7-2.4 15.8-6.8h0L145 308.8 17.8 291.7l-6.9-.7c-.7-.1-1.3.4-1.3 1.1v.3l.5 2.9c.2 1.5 1 2.7 2.2 3.5 0 0 0 0 0 0z"/>
    <path fill="#292538" stroke="#292538" stroke-width="2" stroke-miterlimit="10" d="M173.2 289.6H11.3L2 190c-.3-3.5 2.3-6.7 5.9-7h149.5c3.3 0 6.1 2.5 6.4 5.9l9.4 100.7h0z"/>
    <path fill="#FFF" stroke="#FCFCFC" stroke-linecap="round" stroke-miterlimit="10" d="M2.5 195.5h162"/>
    <circle fill="#FFF" stroke="#FCFCFC" stroke-linecap="round" stroke-miterlimit="10" cx="87.6" cy="188.5" r="1.6"/>
    <path fill="#FFF" stroke="#292538" stroke-linecap="round" stroke-linejoin="round" d="M10.4 290.8l86.3 54.3c.8.5 1.7.8 2.6.8l168.7 1.4-93.6-56.5h-164 0z"/>
    <path fill="#292538" d="M52.5 303.7h-4.4c-.3 0-.6-.1-.9-.3l-2.3-1.9c-.6-.5-.7-1.4-.2-2 .3-.3.7-.5 1.1-.5h4.4c.3 0 .6.1.9.3l2.3 1.9c.6.5.7 1.4.3 2-.4.3-.8.6-1.2.5zm11 0h-4.4c-.3 0-.6-.1-.9-.3l-2.3-1.9c-.6-.5-.7-1.4-.3-2 .3-.4.7-.6 1.1-.6h4.4c.3 0 .6.1.9.3l2.4 1.9c.6.5.7 1.4.2 2-.3.5-.7.6-1.1.6zm11 0h-4.4c-.3 0-.6-.1-.9-.3l-2.4-1.9c-.6-.5-.7-1.4-.3-2 .3-.4.7-.6 1.1-.6H72c.3 0 .6.1.9.3l2.4 1.9c.6.5.7 1.4.2 2-.1.4-.5.6-1 .6zm11.1 0h-4.4c-.3 0-.6-.1-.9-.3l-2.3-1.9c-.6-.5-.7-1.4-.2-2 .3-.3.7-.5 1.1-.5h4.4c.3 0 .6.1.9.3l2.3 1.9c.6.5.7 1.4.3 2-.3.4-.8.6-1.2.5zm11 0h-4.4c-.3 0-.6-.1-.9-.3l-2.3-1.9c-.6-.5-.7-1.4-.3-2 .3-.4.7-.6 1.1-.6h4.4c.3 0 .6.1.9.3l2.3 1.9c.6.5.7 1.4.3 2-.2.4-.7.7-1.1.6zm11 0h-4.4c-.3 0-.6-.1-.9-.3l-2.4-1.9c-.6-.5-.7-1.4-.3-2 .3-.4.7-.6 1.1-.6h4.4c.3 0 .6.1.9.3l2.4 1.9c.6.5.7 1.4.2 2-.2.4-.6.6-1 .6zm11.1 0h-4.4c-.3 0-.6-.1-.9-.3l-2.4-1.9c-.6-.5-.7-1.4-.2-2 .3-.3.7-.5 1.1-.5h4.4c.3 0 .6.1.9.3l2.4 1.9c.6.5.7 1.4.2 2-.3.4-.7.6-1.1.5zm11 0h-4.4c-.3 0-.6-.1-.9-.3l-2.4-1.9c-.6-.5-.7-1.4-.2-2 .3-.3.7-.5 1.1-.5h4.4c.3 0 .6.1.9.3l2.3 1.9c.6.5.7 1.4.2 2-.2.4-.6.5-1 .5zm11 0h-4.4c-.3 0-.6-.1-.9-.3l-2.3-1.9c-.6-.5-.7-1.4-.2-2 .3-.3.7-.5 1.1-.5h4.4c.3 0 .6.1.9.3l2.4 1.9c.6.5.7 1.4.2 2-.4.3-.8.5-1.2.5zm11.1 0h-4.4c-.3 0-.6-.1-.9-.3l-2.4-1.9c-.6-.5-.7-1.4-.3-2 .3-.4.7-.6 1.1-.6h4.4c.3 0 .6.1.9.3l2.4 1.9c.6.5.7 1.4.2 2-.2.4-.6.6-1 .6zm11 0h-4.4c-.3 0-.6-.1-.9-.3l-2.4-1.9c-.6-.5-.7-1.4-.2-2 .3-.3.7-.5 1.1-.5h4.4c.3 0 .6.1.9.3l2.4 1.9c.6.5.7 1.4.3 2-.3.3-.8.6-1.2.5zm11 0h-4.4c-.3 0-.6-.1-.9-.3l-2.4-1.9c-.6-.5-.7-1.4-.2-2 .3-.3.7-.5 1.1-.5h4.4c.3 0 .6.1.9.3l2.3 1.9c.6.5.7 1.4.3 2-.2.3-.6.6-1.1.5zM62.8 310.6h-4.4c-.3 0-.6-.1-.9-.3l-2.3-1.9c-.6-.5-.7-1.4-.3-2 .3-.4.7-.6 1.1-.6h4.4c.3 0 .6.1.9.3l2.3 1.8c.6.5.8 1.3.4 2-.3.5-.7.8-1.2.7zm11 0h-4.4c-.3 0-.6-.1-.9-.3l-2.3-1.9c-.6-.5-.7-1.4-.3-2 .3-.4.7-.6 1.1-.6h4.4c.3 0 .6.1.9.3l2.4 1.8c.6.5.8 1.4.3 2-.3.5-.7.8-1.2.7zm11 0h-4.4c-.3 0-.6-.1-.9-.3l-2.4-1.9c-.6-.5-.7-1.4-.2-2 .3-.3.7-.5 1.1-.5h4.4c.3 0 .6.1.9.3l2.4 1.8c.6.5.8 1.3.4 2-.3.4-.8.7-1.3.6zm11.1 0h-4.4c-.3 0-.6-.1-.9-.3l-2.4-1.9c-.6-.5-.7-1.4-.2-2 .3-.3.7-.5 1.1-.5h4.4c.3 0 .6.1.9.3l2.3 1.8c.6.5.8 1.3.4 2-.3.4-.7.7-1.2.6zm11 0h-4.4c-.3 0-.6-.1-.9-.3l-2.3-1.9c-.6-.5-.7-1.4-.3-2 .3-.4.7-.6 1.1-.6h4.4c.3 0 .6.1.9.3l2.4 1.9c.6.5.7 1.4.2 2-.3.4-.7.6-1.1.6zm11.1 0h-4.4c-.3 0-.6-.1-.9-.3l-2.4-1.9c-.6-.5-.7-1.4-.3-2 .3-.4.7-.6 1.1-.6h4.4c.3 0 .6.1.9.3l2.4 1.9c.6.5.7 1.4.2 2-.2.4-.6.6-1 .6zm11 0h-4.4c-.3 0-.6-.1-.9-.3l-2.4-1.9c-.6-.5-.7-1.4-.2-2 .3-.3.7-.5 1.1-.5h4.4c.3 0 .6.1.9.3l2.3 1.9c.6.5.7 1.4.3 2-.2.3-.7.5-1.1.5zm11 0h-4.4c-.3 0-.6-.1-.9-.3l-2.3-1.9c-.6-.5-.7-1.4-.3-2 .3-.4.7-.6 1.1-.6h4.4c.3 0 .6.1.9.3l2.4 1.8c.6.5.8 1.3.4 2-.3.5-.8.8-1.3.7zm11 0h-4.4c-.3 0-.6-.1-.9-.3l-2.3-1.9c-.6-.5-.7-1.4-.3-2 .3-.4.7-.6 1.1-.6h4.4c.3 0 .6.1.9.3l2.4 1.9c.6.5.7 1.4.2 2-.3.4-.7.6-1.1.6zm11.1 0h-4.4c-.3 0-.6-.1-.9-.3l-2.4-1.9c-.6-.5-.7-1.4-.2-2 .3-.3.7-.5 1.1-.5h4.4c.3 0 .6.1.9.3l2.4 1.8c.6.5.8 1.4.3 2-.3.4-.7.7-1.2.6zm11 0h-4.4c-.3 0-.6-.1-.9-.3l-2.4-1.9c-.6-.5-.7-1.4-.2-2 .3-.3.7-.5 1.1-.5h4.4c.3 0 .6.1.9.3l2.3 1.8c.6.5.8 1.3.4 2-.2.4-.7.7-1.2.6zm11 0h-4.4c-.3 0-.6-.1-.9-.3l-2.3-1.9c-.6-.5-.7-1.4-.3-2 .3-.4.7-.6 1.1-.6h4.4c.3 0 .6.1.9.3l2.3 1.8c.6.5.8 1.4.3 2-.2.5-.6.7-1.1.7zM74.5 317.5h-4.4c-.3 0-.6-.1-.9-.3l-2.4-1.9c-.6-.5-.7-1.4-.3-2 .3-.4.7-.6 1.1-.6H72c.3 0 .6.1.9.3l2.4 1.9c.6.5.7 1.4.2 2-.1.4-.5.6-1 .6zm11.1 0h-4.4c-.3 0-.6-.1-.9-.3l-2.3-1.9c-.6-.5-.7-1.4-.2-2 .3-.3.7-.5 1.1-.5h4.4c.3 0 .6.1.9.3l2.3 1.9c.6.5.7 1.4.3 2-.3.3-.8.6-1.2.5zm11 0h-4.4c-.3 0-.6-.1-.9-.3l-2.3-1.9c-.6-.5-.7-1.4-.3-2 .3-.4.7-.6 1.1-.6h4.4c.3 0 .6.1.9.3l2.3 1.9c.6.5.7 1.4.3 2-.2.4-.7.6-1.1.6zm11 0h-4.4c-.3 0-.6-.1-.9-.3l-2.4-1.9c-.6-.5-.7-1.4-.3-2 .3-.4.7-.6 1.1-.6h4.4c.3 0 .6.1.9.3l2.4 1.9c.6.5.7 1.4.2 2-.2.4-.6.6-1 .6zm11.1 0h-4.4c-.3 0-.6-.1-.9-.3l-2.4-1.9c-.6-.5-.7-1.4-.2-2 .3-.3.7-.5 1.1-.5h4.4c.3 0 .6.1.9.3l2.4 1.9c.6.5.7 1.4.2 2-.3.3-.7.5-1.1.5zm11 0h-4.4c-.3 0-.6-.1-.9-.3l-2.4-1.9c-.6-.5-.7-1.4-.2-2 .3-.3.7-.5 1.1-.5h4.4c.3 0 .6.1.9.3l2.3 1.9c.6.5.7 1.4.3 2-.2.3-.7.5-1.1.5zm11 0h-4.4c-.3 0-.6-.1-.9-.3l-2.3-1.9c-.6-.5-.7-1.4-.3-2 .3-.4.7-.6 1.1-.6h4.4c.3 0 .6.1.9.3l2.4 1.9c.6.5.7 1.4.2 2-.2.4-.6.6-1.1.6zm11.1 0h-4.4c-.3 0-.6-.1-.9-.3l-2.4-1.9c-.6-.5-.7-1.4-.3-2 .3-.4.7-.6 1.1-.6h4.4c.3 0 .6.1.9.3l2.4 1.9c.6.5.7 1.4.2 2-.2.4-.6.6-1 .6zm11 0h-4.4c-.3 0-.6-.1-.9-.3l-2.4-1.9c-.6-.5-.7-1.4-.2-2 .3-.3.7-.5 1.1-.5h4.4c.3 0 .6.1.9.3l2.4 1.9c.6.5.7 1.4.3 2-.3.3-.8.5-1.2.5zm11 0h-4.4c-.3 0-.6-.1-.9-.3l-2.4-1.9c-.6-.5-.7-1.4-.2-2 .3-.3.7-.5 1.1-.5h4.4c.3 0 .6.1.9.3l2.3 1.9c.6.5.7 1.4.3 2-.2.3-.6.5-1.1.5zm11 0h-4.4c-.3 0-.6-.1-.9-.3l-2.3-1.9c-.6-.5-.7-1.4-.3-2 .3-.4.7-.6 1.1-.6h4.4c.3 0 .6.1.9.3l2.4 1.9c.6.5.7 1.4.2 2-.2.4-.6.6-1.1.6zm11.1 0h-4.4c-.3 0-.6-.1-.9-.3l-2.4-1.9c-.6-.5-.7-1.4-.2-2 .3-.3.7-.5 1.1-.5h4.4c.3 0 .6.1.9.3l2.4 1.9c.6.5.7 1.4.2 2-.3.3-.7.5-1.1.5zM84.8 324.5h-4.4c-.3 0-.6-.1-.9-.3l-2.4-1.9c-.6-.5-.7-1.4-.2-2 .3-.3.7-.5 1.1-.5h4.4c.3 0 .6.1.9.3l2.4 1.9c.6.5.7 1.4.3 2-.3.3-.7.5-1.2.5zm11.1 0h-4.4c-.3 0-.6-.1-.9-.3l-2.4-1.9c-.6-.5-.7-1.4-.2-2 .3-.3.7-.5 1.1-.5h4.4c.3 0 .6.1.9.3l2.3 1.9c.6.5.7 1.4.3 2-.3.3-.7.5-1.1.5zm11 0h-4.4c-.3 0-.6-.1-.9-.3l-2.3-1.9c-.6-.5-.7-1.4-.3-2 .3-.4.7-.6 1.1-.6h4.4c.3 0 .6.1.9.3l2.4 1.9c.6.5.7 1.4.2 2-.3.4-.7.6-1.1.6zm11.1 0h-4.4c-.3 0-.6-.1-.9-.3l-2.4-1.9c-.6-.5-.7-1.4-.3-2 .3-.4.7-.6 1.1-.6h4.4c.3 0 .6.1.9.3l2.4 1.9c.6.5.7 1.4.2 2-.2.4-.6.6-1 .6zm11 0h-4.4c-.3 0-.6-.1-.9-.3l-2.4-1.9c-.6-.5-.7-1.4-.2-2 .3-.3.7-.5 1.1-.5h4.4c.3 0 .6.1.9.3l2.3 1.9c.6.5.7 1.4.3 2-.2.3-.7.5-1.1.5zm11 0h-4.4c-.3 0-.6-.1-.9-.3l-2.3-1.9c-.6-.5-.7-1.4-.3-2 .3-.4.7-.6 1.1-.6h4.4c.3 0 .6.1.9.3l2.3 1.9c.6.5.7 1.4.3 2-.2.4-.7.6-1.1.6zm11 0h-4.4c-.3 0-.6-.1-.9-.3l-2.3-1.9c-.6-.5-.7-1.4-.3-2 .3-.4.7-.6 1.1-.6h4.4c.3 0 .6.1.9.3l2.4 1.9c.6.5.7 1.4.2 2-.3.4-.7.6-1.1.6zm11.1 0h-4.4c-.3 0-.6-.1-.9-.3l-2.4-1.9c-.6-.5-.7-1.4-.2-2 .3-.3.7-.5 1.1-.5h4.4c.3 0 .6.1.9.3l2.4 1.9c.6.5.7 1.4.2 2-.3.3-.7.5-1.1.5zm11 0h-4.4c-.3 0-.6-.1-.9-.3l-2.4-1.9c-.6-.5-.7-1.4-.2-2 .3-.3.7-.5 1.1-.5h4.4c.3 0 .6.1.9.3l2.3 1.9c.6.5.7 1.4.3 2-.2.3-.7.5-1.1.5zm11 0h-4.4c-.3 0-.6-.1-.9-.3l-2.3-1.9c-.6-.5-.7-1.4-.3-2 .3-.4.7-.6 1.1-.6h4.4c.3 0 .6.1.9.3l2.4 1.9c.6.5.7 1.4.2 2-.2.4-.6.6-1.1.6zm11.1 0h-4.4c-.3 0-.6-.1-.9-.3l-2.4-1.9c-.6-.5-.7-1.4-.3-2 .3-.4.7-.6 1.1-.6h4.4c.3 0 .6.1.9.3l2.4 1.9c.6.5.7 1.4.2 2-.2.4-.6.6-1 .6zm11 0h-4.4c-.3 0-.6-.1-.9-.3l-2.4-1.9c-.6-.5-.7-1.4-.2-2 .3-.3.7-.5 1.1-.5h4.4c.3 0 .6.1.9.3l2.4 1.9c.6.5.7 1.4.3 2-.3.3-.8.5-1.2.5z" opacity=".41"/>
    <path fill="#292538" d="M98.9 345.8l-1 7.5-81.4-51.9s-6.1-3.4-6-4c-.1-1.2-.4-2.4-.7-3.6V291l2.3.9 86.8 53.9z"/>
    <circle fill="#FFF" cx="16.1" cy="298" r="1"/>
    <path opacity=".67" d="M134.6 76.8c-4.2 0-7.6 3.4-7.6 7.6V215c0 4.2 3.4 7.6 7.6 7.6h33.2l-3.3-48.8"/>
    <path fill="#FFF" stroke="#292538" stroke-miterlimit="10" d="M111.2 53h205.1c4.2 0 7.6 3.4 7.6 7.6v130.5c0 4.2-3.4 7.6-7.6 7.6H111.2c-4.2 0-7.6-3.4-7.6-7.6V60.5c.1-4.1 3.5-7.5 7.6-7.5z"/>
    <path fill="#3987E0" d="M114.5 60.5h198.7v130.6H114.5V60.5z"/>
    <path fill="#EDF1F4" stroke="#292538" stroke-linecap="round" stroke-linejoin="round" d="M125.5 69.2h147.6c1.6 0 3 1.3 3 2.9s-1.3 2.9-3 2.9H125.5c-1.6 0-2.9-1.3-2.9-2.9-.1-1.6 1.3-2.9 2.9-2.9z"/>
    <circle fill="#292538" cx="284" cy="72.2" r="3"/>
    <circle fill="#FFF" cx="294" cy="72.2" r="3"/>
    <circle fill="#E83041" cx="304" cy="72.2" r="3"/>
    <path fill="#F7B907" d="M125.4 86h10.2v10.2h-10.2V86z"/>
    <path fill="#E83041" d="M137.3 86h10.2v10.2h-10.2V86z"/>
    <path fill="#FFF" d="M125.4 98h10.2v10.2h-10.2V98z"/>
    <path fill="#F3F8FF" stroke="#292538" stroke-miterlimit="10" d="M167.2 105.8h58.9c2 0 3.7 1.7 3.7 3.7v45.3c0 2-1.7 3.7-3.7 3.7h-58.9c-2 0-3.7-1.7-3.7-3.7v-45.3c0-2 1.7-3.7 3.7-3.7h0z"/>
    <path fill="#292538" d="M174.2 151.2h43.4c1.3 0 2.4-1.1 2.4-2.4 0-.6-.3-1.2-.7-1.7l-7.1-7.3c-.8-.8-2.1-1-3.1-.3l-7.7 5.3c-1.1.8-2.6.5-3.4-.6 0 0 0-.1-.1-.1l-10.6-17.6c-.7-1.2-2.2-1.5-3.4-.8-.4.2-.7.6-.9.9l-11.1 21.1c-.6 1.2-.2 2.7 1 3.3.5.1.9.2 1.3.2z"/>
    <circle fill="#292538" cx="213.8" cy="125.5" r="5.2"/>
    <path opacity=".7" d="M244.5 132.5c-20.4 0-36.9 16.5-36.9 36.9 0 11.6 5.5 22.6 14.8 29.5l43.9.3c16.5-12 20.1-35.1 8.1-51.6-7-9.5-18.1-15.1-29.9-15.1z"/>
    <circle fill="#FFF" stroke="#292538" stroke-linejoin="round" cx="260.5" cy="149.6" r="36.9"/>
    <path fill="#9CC153" d="M273.9 140.2l-11.1-10.6c-1.2-1.2-3.2-1.2-4.5 0l-11.1 10.6c-1.3 1.2-1.4 3.2-.2 4.5s3.2 1.4 4.5.2l.1-.1 5.7-5.4v27.9c-.1 1.8 1.3 3.3 3 3.4s3.3-1.3 3.4-3v-28.3l5.7 5.4c1.3 1.2 3.3 1.1 4.5-.2 1.3-1.2 1.2-3.2 0-4.4z"/>
    <path fill="#FFF" stroke="#292538" stroke-linecap="round" stroke-linejoin="round" d="M207.2 406.5v-148c0-11.8 9.9-21.4 22.1-21.4h80.3c12.2 0 22 9.6 22 21.4v148"/>
    <path fill="#292538" d="M213.7 406.5V256.1c-.1-6.2 4.9-11.4 11.1-11.5H314c6.2.1 11.2 5.3 11.1 11.5v150.4"/>
    <path fill="#EDF1F4" d="M299 243.5c0 3.7-3.7 6.6-8.4 6.6h-42.5c-4.6 0-8.4-3-8.4-6.6"/>
    <path fill="#EDF1F4" stroke="#292538" stroke-linecap="round" stroke-linejoin="round" d="M331.6 273.3c1.9 0 3.4 1.5 3.4 3.4v7c0 1.9-1.5 3.4-3.4 3.4v-13.8zm0 15.7c1.9 0 3.4 1.5 3.4 3.4v7c0 1.9-1.5 3.4-3.4 3.4V289z"/>
    <path fill="#292538" d="M249.1 243.5h39.3c.9 0 1.7.7 1.7 1.7 0 .9-.7 1.7-1.7 1.7h-39.3c-.9 0-1.7-.7-1.7-1.7 0-.9.8-1.7 1.7-1.7z"/>
    <path opacity=".7" d="M380.4 233.9L343 221l17.6-48.4 19.9 7.2"/>
    <path opacity=".67" d="M331.6 364.1V316h-39.5v45.2c.2.8.6 1.6 1.2 2.1.8.6 1.8.9 2.7.7"/>
    <path opacity=".7" d="M76.7 148.6l-49.6 5.7-.7-51.2 44.3-5.8 6 51.3z"/>
    <path fill="#FFF" stroke="#292538" stroke-width=".997" stroke-miterlimit="10" d="M10.1 94.3l49.4-6 6.2 51-49.4 6-6.2-51z"/>
    <path fill="#FFF" stroke="#292538" stroke-miterlimit="10" d="M65.1 140.1l-49.6 5.8"/>
    <path fill="#3987E0" d="M15.4 98.8l39.4-4.6 3.5 30.6-39.4 4.6-3.5-30.6z"/>
    <path fill="#FFF" stroke="#292538" stroke-miterlimit="10" d="M353 158.8l46.9 17-17.5 48.4-46.9-17 17.5-48.4h0z"/>
    <path fill="#E83041" d="M356 165.6l37.3 13.5-10.5 29-37.3-13.5 10.5-29z"/>
    <path fill="#FFF" stroke="#292538" stroke-miterlimit="10" d="M352 372.2V324h-49.9v45.2c.2.8.6 1.6 1.2 2.1.8.6 1.8.9 2.7.7"/>
    <path fill="#F7B907" d="M307.4 328.8H347v30.8h-39.6v-30.8z"/>
    <path fill="#FFF" stroke="#292538" stroke-miterlimit="10" d="M302.2 368.8c.1 1.9 1.7 3.3 3.6 3.2 1.7-.1 3.1-1.5 3.2-3.2h46.4c0 1.9-1.5 3.4-3.4 3.4h-46.1"/>
    <g>
        <defs>
            <path id="k" transform="rotate(-6.609 36.842 111.794)" d="M17 96.4h39.7v30.8H17z"/>
        </defs>
        <clipPath id="l">
            <use xlink:href="#k" overflow="visible"/>
        </clipPath>
        <g clip-path="url(#l)">
            <path fill="none" stroke="#FFF" stroke-miterlimit="10" d="M-1.1 117.7c13.1 2.7 27.9 3.5 34.9-4.6 8-9.3.3-23.5 8.6-29.9 7.1-5.5 20.6-1.1 28.5 5.4 10.9 9 16.5 26.5 10.7 33.2C68.5 136.6-.3 93-2.9 97.4c-1.3 2.2 14.4 15.1 73.8 54.2"/>
        </g>
    </g>
    <g>
        <defs>
            <path id="m" transform="rotate(-70.038 369.358 186.795)" d="M354 167h30.8v39.6H354z"/>
        </defs>
        <clipPath id="n">
            <use xlink:href="#m" overflow="visible"/>
        </clipPath>
        <g clip-path="url(#n)">
            <path fill="none" stroke="#FFF" stroke-miterlimit="10" d="M334.6 162.3c9.9 11.4 17.3 13.3 22.5 12.8 11.9-1.1 17.6-16.2 29.2-14.6 4 .5 6.6 2.7 9.3 5 11.9 10 15.7 30.4 9.6 34.9-5.8 4.3-15.7-9.4-35.3-11.8-15.8-1.9-30 4.5-40.6 11.4"/>
        </g>
    </g>
    <g>
        <defs>
            <path id="o" d="M307.4 328.8H347v30.8h-39.6z"/>
        </defs>
        <clipPath id="p">
            <use xlink:href="#o" overflow="visible"/>
        </clipPath>
        <g clip-path="url(#p)">
            <path fill="none" stroke="#FFF" stroke-miterlimit="10" d="M312.2 308.4c9.8 14.8 9.4 22.3 7.1 26.4-4.5 8.4-17.5 5-25.7 15.7-6 7.9-6.7 20.1-2.9 22.5 4.4 2.8 12.6-8.8 34.3-21 13.5-7.6 28-15.9 36.6-10.3 7.3 4.7 9 18.5 5.3 20.7s-14-5.2-42-39.6"/>
        </g>
    </g>
</svg>
